<?xml version="1.0" encoding="UTF-8"?>
<svg version="1.1" xmlns="http://www.w3.org/2000/svg" width="2160" height="2160">
<path d="M0 0 C0.99782501 0.0129007 0.99782501 0.0129007 2.01580811 0.02606201 C94.31365693 1.28562533 186.38115928 14.8913451 447.55029297 117.59375 C449.71130012 118.83427235 451.88245382 120.05049518 454.06640625 121.25 C476.91928157 133.80194768 498.58011553 148.17799006 520 163 C521.25828613 163.8660083 521.25828613 163.8660083 522.54199219 164.74951172 C547.48565975 181.93663527 571.25307981 200.92468409 594.30419922 220.55859375 C596.00234846 222.00199616 597.70590193 223.43881423 599.41015625 224.875 C608.20050126 232.31222031 616.63935439 240.08431872 625 248 C623.00944361 252.41132789 619.84954639 255.11396744 616.3125 258.3125 C605.84799042 267.94729737 595.87602561 278.06865122 585.86645508 288.17114258 C584.88254288 289.16129364 584.88254288 289.16129364 583.87875366 290.17144775 C582.64965076 291.40844874 581.4226761 292.64757008 580.19839478 293.88934326 C577.2491106 296.85569111 574.24269705 299.69324037 571.07446289 302.42553711 C566.79698358 306.12408579 562.81708047 310.07326242 558.84375 314.09375 C558.0971814 314.84410522 557.35061279 315.59446045 556.5814209 316.36755371 C554.21847975 318.7425992 551.8588263 321.12086817 549.5 323.5 C546.38839354 326.63839217 543.27336245 329.77332745 540.15625 332.90625 C539.45705444 333.6137439 538.75785889 334.32123779 538.03747559 335.0501709 C534.15195103 338.95472963 530.15673863 342.64183356 525.98620605 346.23864746 C522.53121636 349.30250625 519.30668269 352.59107058 516.0625 355.875 C515.33812744 356.60315918 514.61375488 357.33131836 513.86743164 358.08154297 C511.57581697 360.38525646 509.28749348 362.69219474 507 365 C503.98214919 368.04464779 500.96086584 371.08582967 497.9375 374.125 C497.26017822 374.81062012 496.58285645 375.49624023 495.88500977 376.20263672 C492.05328824 380.05370322 488.10613951 383.68272738 483.99389648 387.23095703 C480.53691423 390.29809226 477.30926935 393.58845222 474.0625 396.875 C473.33812744 397.60315918 472.61375488 398.33131836 471.86743164 399.08154297 C469.57581697 401.38525646 467.28749348 403.69219474 465 406 C461.98214919 409.04464779 458.96086584 412.08582967 455.9375 415.125 C455.26017822 415.81062012 454.58285645 416.49624023 453.88500977 417.20263672 C450.68623674 420.41755919 447.44865151 423.52388093 444.01367188 426.48632812 C439.75398793 430.16184758 435.79701345 434.0935676 431.84375 438.09375 C431.0971814 438.84410522 430.35061279 439.59446045 429.5814209 440.36755371 C427.21847975 442.7425992 424.8588263 445.12086817 422.5 447.5 C419.38839354 450.63839217 416.27336245 453.77332745 413.15625 456.90625 C412.45705444 457.6137439 411.75785889 458.32123779 411.03747559 459.0501709 C407.77902363 462.32458516 404.48524565 465.49406804 400.98632812 468.51147461 C396.8057811 472.11686154 392.93165167 475.97568071 389.0625 479.91015625 C387.57565675 481.40963999 386.08867334 482.90898477 384.6015625 484.40820312 C382.29587113 486.73870008 379.99183278 489.0707855 377.69042969 491.40551758 C375.4439448 493.68239271 373.19112367 495.95284978 370.9375 498.22265625 C370.26017822 498.91343765 369.58285645 499.60421906 368.88500977 500.31593323 C364.54939446 504.673938 360.02108126 508.45310612 355 512 C354.18917969 511.23816406 353.37835937 510.47632813 352.54296875 509.69140625 C346.51130521 504.05432895 340.42813938 498.56257927 333.984375 493.39453125 C331.76972458 491.61759315 329.57507619 489.82504198 327.390625 488.01171875 C302.80346553 467.67266719 276.02726066 450.21601934 248 435 C247.1853125 434.55575684 246.370625 434.11151367 245.53125 433.65380859 C182.61789854 399.54063532 113.97406224 380.53714863 43 373 C41.88302734 372.87995605 40.76605469 372.75991211 39.61523438 372.63623047 C-43.43166398 364.19824307 -128.45018842 376.50872698 -298 448 C-299.2070459 448.7130127 -299.2070459 448.7130127 -300.43847656 449.44042969 C-323.35857062 463.04774768 -345.24598204 478.27729081 -366 495 C-366.92941406 495.74636719 -367.85882812 496.49273438 -368.81640625 497.26171875 C-386.44825746 511.55712067 -402.93433309 526.85423451 -419 542.875 C-419.54274567 543.41506683 -420.08549133 543.95513367 -420.64468384 544.51156616 C-426.64885956 550.49324115 -432.52379533 556.52404246 -438 563 C-438.96109568 564.10646341 -439.92330291 565.21196245 -440.88671875 566.31640625 C-471.84337842 602.10867955 -498.14217473 641.04570819 -520 683 C-520.49274414 683.93634277 -520.98548828 684.87268555 -521.49316406 685.83740234 C-545.79657397 732.21227635 -562.23901955 781.84270503 -573 833 C-573.21994629 834.0420459 -573.43989258 835.0840918 -573.66650391 836.15771484 C-577.24129994 853.33404592 -579.89479897 870.58568656 -582 888 C-582.15243164 889.17643066 -582.30486328 890.35286133 -582.46191406 891.56494141 C-587.73097192 933.27926449 -587.52971694 978.33560594 -582 1020 C-581.82588573 1021.37799482 -581.65256937 1022.75609065 -581.47998047 1024.13427734 C-573.57266059 1086.60358088 -555.74203857 1147.99751586 -529 1205 C-528.55575684 1205.95938477 -528.11151367 1206.91876953 -527.65380859 1207.90722656 C-520.48165949 1223.37348018 -512.66603763 1238.31936136 -504 1253 C-503.42991211 1253.96711914 -502.85982422 1254.93423828 -502.27246094 1255.93066406 C-486.81369141 1282.0232717 -469.41850913 1306.70276974 -450 1330 C-449.51934082 1330.57975586 -449.03868164 1331.15951172 -448.54345703 1331.75683594 C-442.74212771 1338.74566553 -436.76398017 1345.53758099 -430.5859375 1352.1953125 C-428.35050986 1354.61983976 -426.17196484 1357.08148088 -424 1359.5625 C-419.32119687 1364.7762661 -414.38240738 1369.72696216 -409.4375 1374.6875 C-408.63376953 1375.49582275 -407.83003906 1376.30414551 -407.00195312 1377.13696289 C-402.16174382 1381.96476394 -397.18216835 1386.5441889 -392 1391 C-390.39231627 1392.45445517 -388.78760285 1393.91220895 -387.1875 1395.375 C-381.93824117 1400.10571502 -376.50441004 1404.57083694 -371 1409 C-369.87864698 1409.91374442 -368.75756489 1410.82782139 -367.63671875 1411.7421875 C-345.13538622 1430.02259739 -321.18857335 1446.6201597 -296 1461 C-295.34257813 1461.37608398 -294.68515625 1461.75216797 -294.0078125 1462.13964844 C-288.70647884 1465.15736858 -283.36373721 1468.09486021 -278 1471 C-276.69264893 1471.7101123 -276.69264893 1471.7101123 -275.35888672 1472.43457031 C-213.66812758 1505.7720057 -145.48844531 1525.72642868 -76 1534 C-74.93800385 1534.12695251 -74.93800385 1534.12695251 -73.85455322 1534.25646973 C-33.39688098 1539.01097341 8.46972196 1538.89226052 49 1535 C49.67111816 1534.93683594 50.34223633 1534.87367187 51.03369141 1534.80859375 C140.92168582 1526.30933495 229.11551441 1500.23137583 378 1391 C380.79916008 1388.18638643 383.61701636 1385.39344633 386.453125 1382.6171875 C392.94263818 1376.23827168 399.20935786 1369.87168145 404.84765625 1362.7109375 C406.7805137 1360.27644917 408.7827499 1357.92165189 410.82250977 1355.57666016 C448.54641914 1312.00287967 476.97799395 1258.47449515 495 1204 C495.33225586 1202.99775391 495.66451172 1201.99550781 496.00683594 1200.96289062 C499.58979322 1190.012317 502.61612257 1178.96623022 505.25 1167.75 C505.48428711 1166.75790527 505.71857422 1165.76581055 505.95996094 1164.74365234 C508.120928 1155.18982164 509.46170418 1145.74254019 511 1136 C338.08 1135.67 165.16 1135.34 -13 1135 C-13 1017.85 -13 900.7 -13 780 C282.68 780 578.36 780 883 780 C897.42348805 850.31450425 903.92003038 919.32812484 903 991 C902.9870993 992.01658691 902.9870993 992.01658691 902.97393799 993.05371094 C901.84964157 1075.97362028 891.60971907 1158.43995973 872 1239 C871.83155579 1239.69569092 871.66311157 1240.39138184 871.48956299 1241.1081543 C857.93938509 1297.02675399 838.93633647 1351.68678688 815 1404 C814.71745361 1404.61987793 814.43490723 1405.23975586 814.14379883 1405.87841797 C799.83556714 1437.25945691 783.99975838 1467.57289689 766 1497 C765.35788574 1498.051875 764.71577148 1499.10375 764.05419922 1500.1875 C756.2251372 1512.97028779 748.12657691 1525.52723662 739.53222656 1537.80908203 C738.04253815 1539.93917506 736.56354482 1542.07635933 735.0859375 1544.21484375 C723.5793982 1560.78317263 711.23574381 1576.73069212 698.40478516 1592.29101562 C697.09873599 1593.87988323 695.80471919 1595.47862053 694.51171875 1597.078125 C690.19356693 1602.41801568 685.73984723 1607.58944119 681.1171875 1612.66796875 C679.21948831 1614.75823889 677.35266585 1616.86986115 675.5 1619 C663.31408696 1632.95840948 650.64374704 1646.44133054 637.5625 1659.5625 C636.73451904 1660.39507324 635.90653809 1661.22764648 635.0534668 1662.08544922 C630.80436218 1666.32385727 626.48207072 1670.40051487 621.93188477 1674.31323242 C618.58878058 1677.23216416 615.40207474 1680.31619935 612.1875 1683.375 C606.86842418 1688.39843503 601.47707193 1693.21784452 595.75 1697.77734375 C593.15378461 1699.87570534 590.63380722 1702.0376004 588.11865234 1704.23120117 C581.10629088 1710.33928024 573.8468566 1716.03921631 566.42578125 1721.640625 C562.64994089 1724.49240237 558.92702031 1727.40631875 555.21142578 1730.3359375 C547.120808 1736.70141389 538.88396309 1742.72729507 530.32470703 1748.4453125 C527.67803769 1750.21531779 525.04046539 1751.99853142 522.40234375 1753.78125 C461.59910066 1794.73995072 396.21303923 1828.16048643 326.96185303 1852.31567383 C325.6313817 1852.77976382 324.30135764 1853.24513767 322.97174072 1853.71166992 C242.35959768 1881.9886444 157.84779462 1898.56421795 1 1908 C-0.28068359 1908.01659668 -1.56136719 1908.03319336 -2.88085938 1908.05029297 C-96.57765816 1909.04419563 -190.52091331 1896.52929784 -506 1771 C-507.41611572 1770.14196777 -507.41611572 1770.14196777 -508.86083984 1769.26660156 C-546.34349332 1746.52761413 -582.22171339 1720.94530148 -616 1693 C-616.85207031 1692.31035156 -617.70414063 1691.62070313 -618.58203125 1690.91015625 C-629.83931402 1681.79554809 -640.71962104 1672.26352076 -651.3515625 1662.4296875 C-653.64093397 1660.32940865 -655.95961618 1658.27834812 -658.3125 1656.25 C-661.40509224 1653.57187889 -664.28270167 1650.74131207 -667.14599609 1647.8215332 C-668.84252776 1646.1547143 -670.58483861 1644.6220239 -672.40234375 1643.08984375 C-677.96305937 1638.25315966 -683.12834857 1633.02116643 -688.32739258 1627.80297852 C-690.058947 1626.066064 -691.79578359 1624.33456111 -693.53320312 1622.60351562 C-698.71965043 1617.41985439 -703.85159127 1612.24362868 -708.58178711 1606.63256836 C-710.14395254 1604.83428979 -711.799625 1603.1674709 -713.5 1601.5 C-716.53594925 1598.51127663 -719.34508659 1595.38293521 -722.125 1592.15625 C-724.17359094 1589.80037042 -726.27203002 1587.4949254 -728.375 1585.1875 C-732.25350727 1580.89040173 -735.92865968 1576.46241246 -739.56640625 1571.9609375 C-741.75153195 1569.30230944 -743.9839975 1566.6995161 -746.24438477 1564.10546875 C-752.345654 1557.09301596 -758.04478404 1549.83885787 -763.64453125 1542.421875 C-766.48096767 1538.66661644 -769.37495968 1534.96020416 -772.28515625 1531.26196289 C-778.91507916 1522.82429314 -785.22556005 1514.2185845 -791.33398438 1505.39746094 C-793.19595003 1502.71802033 -795.07396046 1500.0502172 -796.953125 1497.3828125 C-804.1695253 1487.11550728 -811.20862923 1476.80484741 -817.7265625 1466.08007812 C-819.12380598 1463.7977709 -820.54441386 1461.53111883 -821.96875 1459.265625 C-836.31063253 1436.4055602 -849.51518753 1412.91921179 -862 1389 C-862.82298584 1387.42412109 -862.82298584 1387.42412109 -863.66259766 1385.81640625 C-883.95764052 1346.69402644 -900.67254808 1305.6498344 -915 1264 C-915.6506543 1262.13553223 -915.6506543 1262.13553223 -916.31445312 1260.23339844 C-944.82210755 1178.52060893 -960.77453872 1092.34380621 -869.04882812 532.93798828 C-861.74028598 517.81678008 -853.8480955 503.08870026 -845.45361328 488.54443359 C-843.71145201 485.49491986 -842.03065351 482.41496211 -840.35449219 479.32885742 C-824.95910486 451.07928792 -806.87500868 424.03513492 -788 398 C-787.18934082 396.88069092 -787.18934082 396.88069092 -786.36230469 395.73876953 C-768.42709033 371.043359 -749.57282961 346.85556156 -729.0390625 324.25390625 C-727.20913753 322.2311731 -725.41118272 320.18630565 -723.625 318.125 C-719.34547447 313.21872474 -714.93812405 308.43059194 -710.52001953 303.64941406 C-709.02703352 302.0293348 -707.54253129 300.40180314 -706.05859375 298.7734375 C-698.29347064 290.30405562 -690.23958689 282.13246693 -682.125 274 C-681.5850238 273.45743561 -681.04504761 272.91487122 -680.4887085 272.35586548 C-675.08433543 266.93106097 -669.66671323 261.57526642 -663.84179688 256.59667969 C-660.52063628 253.71751873 -657.3709185 250.65448979 -654.1875 247.625 C-648.81233924 242.54392477 -643.36458379 237.71775236 -637.578125 233.109375 C-634.76980295 230.81165696 -632.10530355 228.39664852 -629.4375 225.9375 C-625.35685645 222.1902048 -621.18575591 218.6572401 -616.828125 215.23828125 C-614.6928021 213.54830885 -612.58302707 211.83994296 -610.484375 210.10546875 C-601.01764804 202.29454658 -591.29397174 194.91355291 -581.35839844 187.70996094 C-579.10261971 186.0744046 -576.85167415 184.43240247 -574.6015625 182.7890625 C-558.11250521 170.77798852 -541.52021445 158.87260675 -524.08007812 148.2734375 C-521.7977709 146.87619402 -519.53111883 145.45558614 -517.265625 144.03125 C-493.68115695 129.23373296 -469.42990658 115.75880937 -444.74365234 102.90826416 C-443.1677806 102.0873965 -441.59355623 101.26336816 -440.01953125 100.43896484 C-412.58798976 86.12750916 -383.87290421 74.069509 -355 63 C-353.824375 62.54850586 -352.64875 62.09701172 -351.4375 61.63183594 C-269.23178162 30.28639891 -182.36656506 10.48927493 0 0 Z " fill="#34A853" transform="translate(1112,126)"/>
<path d="M0 0 C0.99782501 0.0129007 0.99782501 0.0129007 2.01580811 0.02606201 C94.31365693 1.28562533 186.38115928 14.8913451 447.55029297 117.59375 C449.71130012 118.83427235 451.88245382 120.05049518 454.06640625 121.25 C476.91928157 133.80194768 498.58011553 148.17799006 520 163 C521.25828613 163.8660083 521.25828613 163.8660083 522.54199219 164.74951172 C547.48565975 181.93663527 571.25307981 200.92468409 594.30419922 220.55859375 C596.00234846 222.00199616 597.70590193 223.43881423 599.41015625 224.875 C608.20050126 232.31222031 616.63935439 240.08431872 625 248 C623.00944361 252.41132789 619.84954639 255.11396744 616.3125 258.3125 C605.84799042 267.94729737 595.87602561 278.06865122 585.86645508 288.17114258 C584.88254288 289.16129364 584.88254288 289.16129364 583.87875366 290.17144775 C582.64965076 291.40844874 581.4226761 292.64757008 580.19839478 293.88934326 C577.2491106 296.85569111 574.24269705 299.69324037 571.07446289 302.42553711 C566.79698358 306.12408579 562.81708047 310.07326242 558.84375 314.09375 C558.0971814 314.84410522 557.35061279 315.59446045 556.5814209 316.36755371 C554.21847975 318.7425992 551.8588263 321.12086817 549.5 323.5 C546.38839354 326.63839217 543.27336245 329.77332745 540.15625 332.90625 C539.45705444 333.6137439 538.75785889 334.32123779 538.03747559 335.0501709 C534.15195103 338.95472963 530.15673863 342.64183356 525.98620605 346.23864746 C522.53121636 349.30250625 519.30668269 352.59107058 516.0625 355.875 C515.33812744 356.60315918 514.61375488 357.33131836 513.86743164 358.08154297 C511.57581697 360.38525646 509.28749348 362.69219474 507 365 C503.98214919 368.04464779 500.96086584 371.08582967 497.9375 374.125 C497.26017822 374.81062012 496.58285645 375.49624023 495.88500977 376.20263672 C492.05328824 380.05370322 488.10613951 383.68272738 483.99389648 387.23095703 C480.53691423 390.29809226 477.30926935 393.58845222 474.0625 396.875 C473.33812744 397.60315918 472.61375488 398.33131836 471.86743164 399.08154297 C469.57581697 401.38525646 467.28749348 403.69219474 465 406 C461.98214919 409.04464779 458.96086584 412.08582967 455.9375 415.125 C455.26017822 415.81062012 454.58285645 416.49624023 453.88500977 417.20263672 C450.68623674 420.41755919 447.44865151 423.52388093 444.01367188 426.48632812 C439.75398793 430.16184758 435.79701345 434.0935676 431.84375 438.09375 C431.0971814 438.84410522 430.35061279 439.59446045 429.5814209 440.36755371 C427.21847975 442.7425992 424.8588263 445.12086817 422.5 447.5 C419.38839354 450.63839217 416.27336245 453.77332745 413.15625 456.90625 C412.45705444 457.6137439 411.75785889 458.32123779 411.03747559 459.0501709 C407.77902363 462.32458516 404.48524565 465.49406804 400.98632812 468.51147461 C396.8057811 472.11686154 392.93165167 475.97568071 389.0625 479.91015625 C387.57565675 481.40963999 386.08867334 482.90898477 384.6015625 484.40820312 C382.29587113 486.73870008 379.99183278 489.0707855 377.69042969 491.40551758 C375.4439448 493.68239271 373.19112367 495.95284978 370.9375 498.22265625 C370.26017822 498.91343765 369.58285645 499.60421906 368.88500977 500.31593323 C364.54939446 504.673938 360.02108126 508.45310612 355 512 C354.18917969 511.23816406 353.37835937 510.47632813 352.54296875 509.69140625 C346.51130521 504.05432895 340.42813938 498.56257927 333.984375 493.39453125 C331.76972458 491.61759315 329.57507619 489.82504198 327.390625 488.01171875 C302.80346553 467.67266719 276.02726066 450.21601934 248 435 C247.1853125 434.55575684 246.370625 434.11151367 245.53125 433.65380859 C182.61789854 399.54063532 113.97406224 380.53714863 43 373 C41.88302734 372.87995605 40.76605469 372.75991211 39.61523438 372.63623047 C-43.43166398 364.19824307 -128.45018842 376.50872698 -298 448 C-299.2070459 448.7130127 -299.2070459 448.7130127 -300.43847656 449.44042969 C-323.35857062 463.04774768 -345.24598204 478.27729081 -366 495 C-366.92941406 495.74636719 -367.85882812 496.49273438 -368.81640625 497.26171875 C-386.44825746 511.55712067 -402.93433309 526.85423451 -419 542.875 C-419.54274567 543.41506683 -420.08549133 543.95513367 -420.64468384 544.51156616 C-426.64885956 550.49324115 -432.52379533 556.52404246 -438 563 C-438.96109568 564.10646341 -439.92330291 565.21196245 -440.88671875 566.31640625 C-471.84337842 602.10867955 -498.14217473 641.04570819 -520 683 C-520.49274414 683.93634277 -520.98548828 684.87268555 -521.49316406 685.83740234 C-545.79657397 732.21227635 -562.23901955 781.84270503 -573 833 C-573.21994629 834.0420459 -573.43989258 835.0840918 -573.66650391 836.15771484 C-577.24129994 853.33404592 -579.89479897 870.58568656 -582 888 C-582.15243164 889.17643066 -582.30486328 890.35286133 -582.46191406 891.56494141 C-587.73097192 933.27926449 -587.52971694 978.33560594 -582 1020 C-581.82588573 1021.37799482 -581.65256937 1022.75609065 -581.47998047 1024.13427734 C-576.76390005 1061.39219327 -569.01160521 1099.12858747 -556.58764648 1134.62451172 C-555.70835229 1137.20664026 -554.99018876 1139.48981549 -555.04296875 1142.234375 C-556.48790997 1144.9001441 -558.4659397 1146.13236352 -560.9375 1147.875 C-562.03918544 1148.66859841 -563.13935036 1149.46431036 -564.23828125 1150.26171875 C-565.14247803 1150.91406494 -565.14247803 1150.91406494 -566.06494141 1151.57958984 C-569.64335158 1154.20628558 -573.12861997 1156.95314183 -576.625 1159.6875 C-578.17313134 1160.89458991 -579.7213091 1162.10162031 -581.26953125 1163.30859375 C-582.04893066 1163.91687012 -582.82833008 1164.52514648 -583.63134766 1165.15185547 C-587.52246792 1168.18790787 -591.41717942 1171.2193395 -595.3125 1174.25 C-596.06740723 1174.83740967 -596.82231445 1175.42481934 -597.60009766 1176.0300293 C-602.9166797 1180.16430864 -608.25152839 1184.27390058 -613.59375 1188.375 C-617.74241368 1191.56627975 -621.87032481 1194.784213 -626 1198 C-632.18146123 1202.81351723 -638.37921882 1207.60424879 -644.59375 1212.375 C-648.74241368 1215.56627975 -652.87032481 1218.784213 -657 1222 C-663.18146123 1226.81351723 -669.37921882 1231.60424879 -675.59375 1236.375 C-679.74241368 1239.56627975 -683.87032481 1242.784213 -688 1246 C-694.18146123 1250.81351723 -700.37921882 1255.60424879 -706.59375 1260.375 C-710.74241389 1263.56627991 -714.87030247 1266.78424136 -719 1270 C-727.3255216 1276.48226799 -735.68336578 1282.92074101 -744.0546875 1289.34375 C-751.17309455 1294.81125466 -758.26448813 1300.31249914 -765.34643555 1305.82714844 C-770.74661635 1310.03039666 -776.165597 1314.20793305 -781.59375 1318.375 C-785.74241368 1321.56627975 -789.87032481 1324.784213 -794 1328 C-800.18146123 1332.81351723 -806.37921882 1337.60424879 -812.59375 1342.375 C-816.74241411 1345.56628008 -820.87027842 1348.78427192 -825 1352 C-837.94230066 1362.07551438 -850.96684182 1372.04245099 -864 1382 C-866.85783345 1379.50561186 -868.25449948 1376.81412001 -869.8984375 1373.41796875 C-870.45337891 1372.27448975 -871.00832031 1371.13101074 -871.58007812 1369.95288086 C-872.17918051 1368.69813323 -872.77746425 1367.44299445 -873.375 1366.1875 C-873.68268311 1365.54475128 -873.99036621 1364.90200256 -874.30737305 1364.23977661 C-908.10162504 1293.56216484 -932.83916727 1218.46625534 -912.15966797 634.96264648 C-894.18185672 584.47061659 -872.25604319 534.98228144 -845.45361328 488.54443359 C-843.71145201 485.49491986 -842.03065351 482.41496211 -840.35449219 479.32885742 C-824.95910486 451.07928792 -806.87500868 424.03513492 -788 398 C-787.18934082 396.88069092 -787.18934082 396.88069092 -786.36230469 395.73876953 C-768.42709033 371.043359 -749.57282961 346.85556156 -729.0390625 324.25390625 C-727.20913753 322.2311731 -725.41118272 320.18630565 -723.625 318.125 C-719.34547447 313.21872474 -714.93812405 308.43059194 -710.52001953 303.64941406 C-709.02703352 302.0293348 -707.54253129 300.40180314 -706.05859375 298.7734375 C-698.29347064 290.30405562 -690.23958689 282.13246693 -682.125 274 C-681.5850238 273.45743561 -681.04504761 272.91487122 -680.4887085 272.35586548 C-675.08433543 266.93106097 -669.66671323 261.57526642 -663.84179688 256.59667969 C-660.52063628 253.71751873 -657.3709185 250.65448979 -654.1875 247.625 C-648.81233924 242.54392477 -643.36458379 237.71775236 -637.578125 233.109375 C-634.76980295 230.81165696 -632.10530355 228.39664852 -629.4375 225.9375 C-625.35685645 222.1902048 -621.18575591 218.6572401 -616.828125 215.23828125 C-614.6928021 213.54830885 -612.58302707 211.83994296 -610.484375 210.10546875 C-601.01764804 202.29454658 -591.29397174 194.91355291 -581.35839844 187.70996094 C-579.10261971 186.0744046 -576.85167415 184.43240247 -574.6015625 182.7890625 C-558.11250521 170.77798852 -541.52021445 158.87260675 -524.08007812 148.2734375 C-521.7977709 146.87619402 -519.53111883 145.45558614 -517.265625 144.03125 C-493.68115695 129.23373296 -469.42990658 115.75880937 -444.74365234 102.90826416 C-443.1677806 102.0873965 -441.59355623 101.26336816 -440.01953125 100.43896484 C-412.58798976 86.12750916 -383.87290421 74.069509 -355 63 C-353.824375 62.54850586 -352.64875 62.09701172 -351.4375 61.63183594 C-269.23178162 30.28639891 -182.36656506 10.48927493 0 0 Z " fill="#EB4334" transform="translate(1112,126)"/>
<path d="M0 0 C295.68 0 591.36 0 896 0 C910.42348805 70.31450425 916.92003038 139.32812484 916 211 C915.9870993 212.01658691 915.9870993 212.01658691 915.97393799 213.05371094 C914.84964157 295.97362028 904.60971907 378.43995973 885 459 C884.83155579 459.69569092 884.66311157 460.39138184 884.48956299 461.1081543 C870.93938509 517.02675399 851.93633647 571.68678688 828 624 C827.57618042 624.92981689 827.57618042 624.92981689 827.14379883 625.87841797 C812.83556714 657.25945691 796.99975838 687.57289689 779 717 C778.03682861 718.5778125 778.03682861 718.5778125 777.05419922 720.1875 C769.2251372 732.97028779 761.12657691 745.52723662 752.53222656 757.80908203 C751.04253815 759.93917506 749.56354482 762.07635933 748.0859375 764.21484375 C736.5793982 780.78317263 724.23574381 796.73069212 711.40478516 812.29101562 C710.09873599 813.87988323 708.80471919 815.47862053 707.51171875 817.078125 C703.19356693 822.41801568 698.73984723 827.58944119 694.1171875 832.66796875 C692.21948831 834.75823889 690.35266585 836.86986115 688.5 839 C676.31408696 852.95840948 663.64374704 866.44133054 650.5625 879.5625 C649.73451904 880.39507324 648.90653809 881.22764648 648.0534668 882.08544922 C634.10379954 896 634.10379954 896 630 896 C627.62468373 894.26762648 625.37893363 892.5042707 623.125 890.625 C621.75994286 889.50940242 620.39404417 888.39483382 619.02734375 887.28125 C618.34526855 886.72308594 617.66319336 886.16492187 616.96044922 885.58984375 C614.23994318 883.38362515 611.47045644 881.25210046 608.6875 879.125 C603.43813713 875.10888228 598.21406065 871.06184514 593 867 C587.84451434 862.98523191 582.68315684 858.97898909 577.5 855 C571.53010829 850.41705283 565.59045507 845.79589513 559.65234375 841.171875 C555.27855923 837.76757571 550.89641293 834.37502406 546.5 831 C540.53010829 826.41705283 534.59045507 821.79589513 528.65234375 817.171875 C524.27855923 813.76757571 519.89641293 810.37502406 515.5 807 C506.5147248 800.10039094 497.58557012 793.12848881 488.64746094 786.16796875 C480.25138481 779.6302988 471.8470729 773.10482364 463.40625 766.625 C458.47145464 762.82900357 453.56454869 758.99701961 448.65234375 755.171875 C444.27855923 751.76757571 439.89641293 748.37502406 435.5 745 C429.53010829 740.41705283 423.59045507 735.79589513 417.65234375 731.171875 C413.27855923 727.76757571 408.89641293 724.37502406 404.5 721 C398.53010829 716.41705283 392.59045507 711.79589513 386.65234375 707.171875 C382.27855923 703.76757571 377.89641293 700.37502406 373.5 697 C367.66181607 692.51697796 361.84660738 688.00495504 356.04125977 683.47949219 C351.99794352 680.32796397 347.94720431 677.1868179 343.8828125 674.0625 C342.64084106 673.1048877 342.64084106 673.1048877 341.3737793 672.12792969 C339.7760333 670.89635716 338.17600863 669.66773396 336.57348633 668.44238281 C335.85700928 667.88905273 335.14053223 667.33572266 334.40234375 666.765625 C333.76804443 666.27868164 333.13374512 665.79173828 332.48022461 665.29003906 C331 664 331 664 330 662 C330.84820313 661.40574219 331.69640625 660.81148437 332.5703125 660.19921875 C353.43156849 645.49571291 373.11624203 629.22989522 391 611 C393.79916008 608.18638643 396.61701636 605.39344633 399.453125 602.6171875 C405.94263818 596.23827168 412.20935786 589.87168145 417.84765625 582.7109375 C419.7805137 580.27644917 421.7827499 577.92165189 423.82250977 575.57666016 C461.54641914 532.00287967 489.97799395 478.47449515 508 424 C508.33225586 422.99775391 508.66451172 421.99550781 509.00683594 420.96289062 C512.58979322 410.012317 515.61612257 398.96623022 518.25 387.75 C518.48428711 386.75790527 518.71857422 385.76581055 518.95996094 384.74365234 C521.120928 375.18982164 522.46170418 365.74254019 524 356 C351.08 355.67 178.16 355.34 0 355 C0 237.85 0 120.7 0 0 Z " fill="#4185F3" transform="translate(1099,906)"/>
<path d="M0 0 C4.04792835 2.64672238 7.92445506 5.40969665 11.75 8.375 C12.30018799 8.80071289 12.85037598 9.22642578 13.41723633 9.66503906 C15.27999632 11.10767195 17.14015619 12.55360984 19 14 C20.40494553 15.0911489 21.80989354 16.18229462 23.21484375 17.2734375 C27.03484257 20.2418281 30.85242209 23.21331639 34.66943359 26.18554688 C38.44517264 29.12513336 42.22263307 32.06250584 46 35 C50.55949384 38.54572028 55.1185484 42.09199896 59.67578125 45.640625 C66.27201386 50.77594703 72.86968837 55.9087193 79.5 61 C86.91613129 66.69469554 94.29198584 72.44087592 101.66943359 78.18554688 C105.44517266 81.12513338 109.22265535 84.06247715 113 87 C114.50000877 88.16665539 116.00000876 89.33332207 117.5 90.5 C118.2425 91.0775 118.985 91.655 119.75 92.25 C144.5 111.5 144.5 111.5 146.7512207 113.25097656 C148.24711662 114.41443312 149.74304745 115.57784478 151.23901367 116.74121094 C155.05209776 119.70661998 158.86452064 122.67287262 162.67578125 125.640625 C169.27201386 130.77594703 175.86968837 135.9087193 182.5 141 C189.91613129 146.69469554 197.29198584 152.44087592 204.66943359 158.18554688 C208.44517266 161.12513338 212.22265535 164.06247715 216 167 C217.50000877 168.16665539 219.00000876 169.33332207 220.5 170.5 C221.2425 171.0775 221.985 171.655 222.75 172.25 C247.5 191.5 247.5 191.5 249.7512207 193.25097656 C251.24711662 194.41443312 252.74304745 195.57784478 254.23901367 196.74121094 C258.05209776 199.70661998 261.86452064 202.67287262 265.67578125 205.640625 C280.05819807 216.83800834 294.51622072 227.93415241 309 239 C307.62698897 246.75680458 305.55496383 254.20517182 303.3125 261.75 C293.76265163 294.59029723 287.10326886 328.05758354 283 362 C282.84756836 363.17643066 282.69513672 364.35286133 282.53808594 365.56494141 C277.26902808 407.27926449 277.47028306 452.33560594 283 494 C283.17411427 495.37799482 283.34743063 496.75609065 283.52001953 498.13427734 C288.23609995 535.39219327 295.98839479 573.12858747 308.41235352 608.62451172 C309.29164771 611.20664026 310.00981124 613.48981549 309.95703125 616.234375 C308.51209003 618.9001441 306.5340603 620.13236352 304.0625 621.875 C302.96081456 622.66859841 301.86064964 623.46431036 300.76171875 624.26171875 C300.1589209 624.69661621 299.55612305 625.13151367 298.93505859 625.57958984 C295.35664842 628.20628558 291.87138003 630.95314183 288.375 633.6875 C286.82686866 634.89458991 285.2786909 636.10162031 283.73046875 637.30859375 C282.95106934 637.91687012 282.17166992 638.52514648 281.36865234 639.15185547 C277.47753208 642.18790787 273.58282058 645.2193395 269.6875 648.25 C268.93259277 648.83740967 268.17768555 649.42481934 267.39990234 650.0300293 C262.0833203 654.16430864 256.74847161 658.27390058 251.40625 662.375 C247.25758632 665.56627975 243.12967519 668.784213 239 672 C232.81853877 676.81351723 226.62078118 681.60424879 220.40625 686.375 C216.25758632 689.56627975 212.12967519 692.784213 208 696 C201.81853877 700.81351723 195.62078118 705.60424879 189.40625 710.375 C185.25758632 713.56627975 181.12967519 716.784213 177 720 C170.81853877 724.81351723 164.62078118 729.60424879 158.40625 734.375 C154.25758611 737.56627991 150.12969753 740.78424136 146 744 C137.6744784 750.48226799 129.31663422 756.92074101 120.9453125 763.34375 C113.82690545 768.81125466 106.73551187 774.31249914 99.65356445 779.82714844 C94.25338365 784.03039666 88.834403 788.20793305 83.40625 792.375 C79.25758632 795.56627975 75.12967519 798.784213 71 802 C64.81853877 806.81351723 58.62078118 811.60424879 52.40625 816.375 C48.25758589 819.56628008 44.12972158 822.78427192 40 826 C27.05769934 836.07551438 14.03315818 846.04245099 1 856 C-1.85783345 853.50561186 -3.25449948 850.81412001 -4.8984375 847.41796875 C-5.73084961 845.70275024 -5.73084961 845.70275024 -6.58007812 843.95288086 C-7.17918051 842.69813323 -7.77746425 841.44299445 -8.375 840.1875 C-8.68268311 839.54475128 -8.99036621 838.90200256 -9.30737305 838.23977661 C-43.10162504 767.56216484 -67.83916727 692.46625534 -47.15966797 108.96264648 C-37.47628617 81.76614317 -26.52966453 55.08542555 -14.4375 28.875 C-14.05800201 28.05148041 -13.67850403 27.22796082 -13.2875061 26.37948608 C-9.14403806 17.41637586 -4.90194168 8.57869245 0 0 Z " fill="#FABB05" transform="translate(247,652)"/>
</svg>
