<?xml version="1.0" encoding="UTF-8"?>
<svg version="1.1" xmlns="http://www.w3.org/2000/svg" width="39" height="40">
<path d="M0 0 C12.87 0 25.74 0 39 0 C39 13.2 39 26.4 39 40 C26.13 40 13.26 40 0 40 C0 26.8 0 13.6 0 0 Z " fill="#F6EEFC" transform="translate(0,0)"/>
<path d="M0 0 C4.65470607 2.15809099 8.01483028 4.14700455 10 9 C10.1953125 11.359375 10.1953125 11.359375 10.125 13.75 C10.10695313 14.54921875 10.08890625 15.3484375 10.0703125 16.171875 C10.04710938 16.77515625 10.02390625 17.3784375 10 18 C8.02966797 18.09087891 8.02966797 18.09087891 6.01953125 18.18359375 C4.28384459 18.26803256 2.54816802 18.35267888 0.8125 18.4375 C-0.05181641 18.47681641 -0.91613281 18.51613281 -1.80664062 18.55664062 C-5.95914122 18.76347016 -9.94537862 19.00103531 -14 20 C-15.05156483 7.81520119 -15.05156483 7.81520119 -12.6875 3.734375 C-8.76985215 0.13153814 -5.32379813 -1.02739964 0 0 Z " fill="#7B5FDB" transform="translate(14,18)"/>
<path d="M0 0 C3.09734974 0.07869854 3.95361687 0.2519557 6.5625 2.125 C9.35218564 6.14214733 9.23978371 9.81489842 9.1875 14.625 C9.17847656 15.70265625 9.16945313 16.7803125 9.16015625 17.890625 C9.14855469 18.71046875 9.13695312 19.5303125 9.125 20.375 C7.4993193 20.06606068 5.87447252 19.7527305 4.25 19.4375 C3.34507813 19.26347656 2.44015625 19.08945312 1.5078125 18.91015625 C-0.875 18.375 -0.875 18.375 -2.875 17.375 C-3.21875 15.265625 -3.21875 15.265625 -3.375 12.625 C-3.67255588 8.84874538 -4.15871077 5.80757847 -5.875 2.375 C-3.875 0.375 -3.875 0.375 0 0 Z " fill="#7A5EDA" transform="translate(28.875,18.625)"/>
<path d="M0 0 C0.33 0 0.66 0 1 0 C1 4.95 1 9.9 1 15 C-11.87 15 -24.74 15 -38 15 C-38 14.34 -38 13.68 -38 13 C-33.15577153 10.45251754 -28.50839624 10.77183572 -23.1875 10.875 C-22.30384766 10.88402344 -21.42019531 10.89304687 -20.50976562 10.90234375 C-18.33972641 10.92580363 -16.16982753 10.96167135 -14 11 C-14 8.03 -14 5.06 -14 2 C-13.67 2 -13.34 2 -13 2 C-13 4.97 -13 7.94 -13 11 C-12.22914062 11.13277344 -11.45828125 11.26554687 -10.6640625 11.40234375 C-9.66117188 11.57894531 -8.65828125 11.75554688 -7.625 11.9375 C-6.62726562 12.11152344 -5.62953125 12.28554688 -4.6015625 12.46484375 C-2 13 -2 13 0 14 C0 9.38 0 4.76 0 0 Z " fill="#F7EEFC" transform="translate(38,25)"/>
<path d="M0 0 C4.35653019 1.39038198 4.35653019 1.39038198 5.9375 3.9375 C6.48374158 7.60512206 6.41648298 9.2633758 4.25 12.3125 C1.9375 13.9375 1.9375 13.9375 -0.5625 14.5 C-3.0625 13.9375 -3.0625 13.9375 -5.375 11.75 C-7.21206543 8.68822428 -7.776437 7.4179429 -7.0625 3.9375 C-4.85818634 0.7158108 -3.95571359 -0.08072885 0 0 Z " fill="#7C65CF" transform="translate(11.0625,2.0625)"/>
<path d="M0 0 C2.31 0.33 4.62 0.66 7 1 C7 1.99 7 2.98 7 4 C6.34 4.66 5.68 5.32 5 6 C5.30096799 10.13830989 5.67898016 12.51847024 8 16 C7 19 7 19 0 24 C0 16.08 0 8.16 0 0 Z " fill="#F5EEFC" transform="translate(0,0)"/>
<path d="M0 0 C2.5 0.25 2.5 0.25 4.5 2.25 C4.625 5.375 4.625 5.375 4.5 8.25 C1.125 8.875 1.125 8.875 -2.5 9.25 C-4.5 7.25 -4.5 7.25 -4.75 4.75 C-4.40058445 1.25584452 -3.49415548 0.34941555 0 0 Z " fill="#7C61D6" transform="translate(28.5,7.75)"/>
<path d="M0 0 C3.125 0.375 3.125 0.375 6 1 C6.33 2.65 6.66 4.3 7 6 C5.68 6.33 4.36 6.66 3 7 C3 7.99 3 8.98 3 10 C1.68 10.33 0.36 10.66 -1 11 C-1.22174933 9.54364629 -1.42698698 8.08477044 -1.625 6.625 C-1.74101563 5.81289062 -1.85703125 5.00078125 -1.9765625 4.1640625 C-1.98429688 3.44992187 -1.99203125 2.73578125 -2 2 C-1.34 1.34 -0.68 0.68 0 0 Z " fill="#795BE0" transform="translate(8,4)"/>
<path d="M0 0 C2 2 2 2 2.1953125 4.8203125 C2.16050781 6.45613281 2.16050781 6.45613281 2.125 8.125 C2.10695312 9.22070312 2.08890625 10.31640625 2.0703125 11.4453125 C2.04710937 12.28835937 2.02390625 13.13140625 2 14 C1.01 13.67 0.02 13.34 -1 13 C-0.67 8.71 -0.34 4.42 0 0 Z " fill="#755EC6" transform="translate(36,25)"/>
<path d="M0 0 C2.50535913 2.34877419 3.90564909 4.0911787 4.265625 7.55859375 C4.25149142 10.04963675 4.17369194 12.51524028 4 15 C3.67 15 3.34 15 3 15 C3 12.03 3 9.06 3 6 C2.34 6 1.68 6 1 6 C0.67 4.02 0.34 2.04 0 0 Z " fill="#D6C6F3" transform="translate(22,21)"/>
</svg>
