<?xml version="1.0" encoding="UTF-8"?>
<svg version="1.1" xmlns="http://www.w3.org/2000/svg" width="476" height="621">
<path d="M0 0 C157.08 0 314.16 0 476 0 C476 204.93 476 409.86 476 621 C318.92 621 161.84 621 0 621 C0 416.07 0 211.14 0 0 Z " fill="#F8F2FE" transform="translate(0,0)"/>
<path d="M0 0 C5.79859158 4.94894901 10.23998943 10.40437956 14.2109375 16.89453125 C14.58734375 17.49265625 14.96375 18.09078125 15.3515625 18.70703125 C19.80086244 26.61689781 21.64421866 36.15777004 24.02050781 44.85888672 C24.88473087 48.01996773 25.76659942 51.17582536 26.6484375 54.33203125 C26.91245361 55.32589844 27.17646973 56.31976563 27.44848633 57.34375 C30.31766613 67.55437858 35.48526492 75.37036193 42.2734375 83.39453125 C50.827818 93.94668861 54.91890146 102.07729524 53.54052734 115.89257812 C52.41030218 122.75764951 48.64929831 128.07873818 43.3359375 132.39453125 C36.95509227 136.60394816 30.75924003 138.22057567 23.2109375 138.89453125 C25.9414028 140.34777509 28.53420396 141.35791327 31.51953125 142.15625 C51.02648033 147.55564826 66.90925335 155.03240122 77.38671875 173.39453125 C85.12890623 188.24892093 90.10499964 203.97676997 95.2109375 219.89453125 C95.59378906 221.07861572 95.59378906 221.07861572 95.984375 222.28662109 C97.44378706 226.8075792 98.8432713 231.34515576 100.2109375 235.89453125 C100.47616211 236.77109375 100.74138672 237.64765625 101.01464844 238.55078125 C103.15303925 245.64537551 105.20313042 252.76199134 107.2109375 259.89453125 C107.47503418 260.80960449 107.73913086 261.72467773 108.01123047 262.66748047 C110.85674659 272.65152254 112.6614839 282.17122786 112.7734375 292.58203125 C112.78818115 293.46648926 112.8029248 294.35094727 112.81811523 295.26220703 C112.68792099 303.50576363 110.24305695 310.72801818 105.0859375 317.20703125 C101.2109375 320.89453125 101.2109375 320.89453125 91.2109375 325.89453125 C114.4759375 326.38953125 114.4759375 326.38953125 138.2109375 326.89453125 C138.2109375 327.55453125 138.2109375 328.21453125 138.2109375 328.89453125 C7.8609375 328.89453125 -122.4890625 328.89453125 -256.7890625 328.89453125 C-256.7890625 328.23453125 -256.7890625 327.57453125 -256.7890625 326.89453125 C-244.5790625 326.89453125 -232.3690625 326.89453125 -219.7890625 326.89453125 C-220.5934375 323.98640625 -221.3978125 321.07828125 -222.2265625 318.08203125 C-225.47720108 306.24473013 -228.52010183 294.35537529 -231.54077148 282.45776367 C-234.15712724 272.1805952 -236.93504058 261.96502764 -240.01953125 251.81640625 C-244.17104095 238.05711695 -244.17104095 238.05711695 -243.7890625 231.89453125 C-241.7890625 229.89453125 -241.7890625 229.89453125 -238.8531189 229.65402222 C-237.59625275 229.65846344 -236.3393866 229.66290466 -235.04443359 229.66748047 C-234.35163803 229.66718842 -233.65884247 229.66689636 -232.9450531 229.66659546 C-230.65074216 229.66799094 -228.35675434 229.68356206 -226.0625 229.69921875 C-224.47352272 229.70294811 -222.88454314 229.70579545 -221.29556274 229.70779419 C-217.10992096 229.71543672 -212.9244176 229.73509044 -208.73883057 229.75720215 C-204.46913526 229.77764729 -200.19941763 229.78679305 -195.9296875 229.796875 C-187.54940851 229.81833584 -179.16926866 229.85352294 -170.7890625 229.89453125 C-170.7890625 220.98453125 -170.7890625 212.07453125 -170.7890625 202.89453125 C-170.1290625 202.89453125 -169.4690625 202.89453125 -168.7890625 202.89453125 C-168.83391853 198.85942239 -168.90445059 194.82557215 -168.99658203 190.79125977 C-169.02442552 189.42516871 -169.04581767 188.05892751 -169.06005859 186.69262695 C-169.16561502 177.12569625 -170.41295334 168.90451408 -173.7890625 159.89453125 C-174.22138184 158.73719482 -174.65370117 157.5798584 -175.09912109 156.38745117 C-176.48406458 152.77186258 -177.90994725 149.17536913 -179.3515625 145.58203125 C-180.31170217 143.16947145 -181.27135095 140.75671623 -182.23046875 138.34375 C-182.67447021 137.22677734 -183.11847168 136.10980469 -183.57592773 134.95898438 C-188.37042423 122.84779098 -188.37042423 122.84779098 -187.7890625 118.89453125 C-185.7890625 116.89453125 -185.7890625 116.89453125 -183.9140625 116.77734375 C-183.2128125 116.85726562 -182.5115625 116.9371875 -181.7890625 117.01953125 C-181.0878125 117.08398438 -180.3865625 117.1484375 -179.6640625 117.21484375 C-177.7890625 117.89453125 -177.7890625 117.89453125 -176.5390625 119.94921875 C-176.2915625 120.59117187 -176.0440625 121.233125 -175.7890625 121.89453125 C-175.71558594 120.08855469 -175.71558594 120.08855469 -175.640625 118.24609375 C-175.56559907 116.67054927 -175.49005117 115.09502959 -175.4140625 113.51953125 C-175.383125 112.72546875 -175.3521875 111.93140625 -175.3203125 111.11328125 C-175.015625 105.12109375 -175.015625 105.12109375 -172.7890625 102.89453125 C-170.1640625 102.76953125 -170.1640625 102.76953125 -167.7890625 102.89453125 C-165.75308374 107.32057202 -164.49785766 111.03618772 -163.7890625 115.89453125 C-163.60730469 114.88132812 -163.42554688 113.868125 -163.23828125 112.82421875 C-162.98484668 111.47256772 -162.73091385 110.12101006 -162.4765625 108.76953125 C-162.29963867 107.77179688 -162.29963867 107.77179688 -162.11914062 106.75390625 C-161.28201776 102.37510971 -159.95267553 98.78539838 -157.7890625 94.89453125 C-154.86003377 95.211183 -153.24345998 95.42772446 -151.15307617 97.57519531 C-149.45717524 100.45886435 -149.3623897 102.42010484 -149.27734375 105.75390625 C-149.24189453 106.86894531 -149.20644531 107.98398437 -149.16992188 109.1328125 C-149.14736328 110.29167969 -149.12480469 111.45054687 -149.1015625 112.64453125 C-149.06740234 113.81886719 -149.03324219 114.99320312 -148.99804688 116.203125 C-148.91561077 119.10016514 -148.84644439 121.99690423 -148.7890625 124.89453125 C-147.90089844 124.09144531 -147.01273437 123.28835938 -146.09765625 122.4609375 C-141.94274377 119.01049537 -138.13077537 118.46279218 -132.7890625 118.89453125 C-126.24792218 121.01698855 -122.64063931 125.99631181 -119.5390625 131.83203125 C-116.75662197 138.6698507 -115.97887946 146.02561146 -118.59326172 153.05761719 C-121.19013482 158.83714322 -124.14250362 164.95070523 -128.40185547 169.68847656 C-133.89170537 175.85452927 -133.68095678 181.89509003 -133.6640625 189.89453125 C-133.6846875 191.14621094 -133.7053125 192.39789063 -133.7265625 193.6875 C-133.77342785 196.75718073 -133.79352466 199.8245678 -133.7890625 202.89453125 C-132.4690625 202.89453125 -131.1490625 202.89453125 -129.7890625 202.89453125 C-129.2940625 209.82453125 -129.2940625 209.82453125 -128.7890625 216.89453125 C-127.44574957 213.53624892 -126.50759239 211.04334586 -125.83203125 207.62890625 C-121.63573925 187.90755726 -113.22806016 168.19829504 -96.71484375 155.76953125 C-85.17931488 148.37693598 -68.63212889 141.89453125 -54.7890625 141.89453125 C-54.7890625 140.57453125 -54.7890625 139.25453125 -54.7890625 137.89453125 C-55.87703125 137.85714844 -56.965 137.81976563 -58.0859375 137.78125 C-66.99727756 137.40985937 -75.22613127 136.57573116 -83.7890625 133.89453125 C-84.73394531 133.62898437 -85.67882812 133.3634375 -86.65234375 133.08984375 C-94.68281538 130.57962717 -101.12178901 126.35825606 -105.5 119.03125 C-108.77529983 111.06135374 -107.57379942 103.10095096 -104.42993164 95.34985352 C-103.18543473 92.47109792 -101.90632355 89.60937281 -100.609375 86.75390625 C-95.60139411 75.40248291 -94.75922272 63.13106965 -94.2890625 50.89453125 C-93.49619776 31.56032962 -90.45017634 16.71219691 -75.7890625 2.89453125 C-54.37083473 -16.58011868 -23.05817022 -17.40665791 0 0 Z " fill="#795ADF" transform="translate(263.7890625,229.10546875)"/>
<path d="M0 0 C0.66 0 1.32 0 2 0 C1.23945318 9.43078051 -0.38671563 18.68556572 -2 28 C-1.0925 27.896875 -0.185 27.79375 0.75 27.6875 C4 28 4 28 6.13671875 29.79296875 C8.81821541 34.40829109 10.26718557 39.22045412 11.8125 44.3125 C12.15579346 45.41319824 12.49908691 46.51389648 12.8527832 47.64794922 C15.52607829 56.27850436 18.06077177 64.94986351 20.55029297 73.63500977 C22.54367744 80.56089149 24.74132899 87.38072088 27.15234375 94.171875 C28 97 28 97 28 101 C28.75023437 100.40832031 29.50046875 99.81664062 30.2734375 99.20703125 C40.53311506 91.28614668 48.47465189 85.63873916 62 87 C64.75067407 87.45093018 67.48392847 87.96994485 70.22265625 88.48828125 C79.07279725 89.68721452 88.08048729 89.72112352 97 90 C97 88.68 97 87.36 97 86 C101.37312746 85.15818641 105.74732995 84.32226122 110.12255859 83.49145508 C111.60658094 83.20883777 113.09031377 82.92469527 114.57373047 82.63891602 C122.69649217 81.07516115 130.74091986 79.64345891 139 79 C138.92265625 77.66195312 138.92265625 77.66195312 138.84375 76.296875 C138.84375 69.39399855 140.78811851 62.58237499 142.22265625 55.8671875 C144.69151412 43.76273003 144.4496499 34.7269528 140.5 23 C139.84034248 20.98027641 139.18393385 18.95948794 138.53125 16.9375 C138.09135742 15.62072266 138.09135742 15.62072266 137.64257812 14.27734375 C137 12 137 12 137 9 C137.66 9 138.32 9 139 9 C155.53728505 56.01936973 155.53728505 56.01936973 159 74 C160.50240234 73.7834375 160.50240234 73.7834375 162.03515625 73.5625 C163.37756922 73.37474993 164.72001915 73.18726406 166.0625 73 C166.71927734 72.90460938 167.37605469 72.80921875 168.05273438 72.7109375 C172.40138763 72.11112326 176.61329071 71.90872907 181 72 C181 72.99 181 73.98 181 75 C180.01418945 75.13051758 179.02837891 75.26103516 178.01269531 75.39550781 C152.44034489 78.77415507 152.44034489 78.77415507 127.10107422 83.55029297 C118.13743667 85.46884054 109.13619453 87.18426835 100 88 C100.86625 89.2065625 100.86625 89.2065625 101.75 90.4375 C104.39232648 94.37748148 106.1471545 98.65059743 108 103 C108.33 103.66 108.66 104.32 109 105 C109.81608214 111.44838674 108.7463499 116.64025854 105 122 C104.34 122.33 103.68 122.66 103 123 C103 122.34 103 121.68 103 121 C99.7 121 96.4 121 93 121 C93 122.32 93 123.64 93 125 C140.19 125 187.38 125 236 125 C236 125.66 236 126.32 236 127 C105.65 127 -24.7 127 -159 127 C-159 126.34 -159 125.68 -159 125 C-146.79 125 -134.58 125 -122 125 C-122.804375 122.091875 -123.60875 119.18375 -124.4375 116.1875 C-127.68813858 104.35019888 -130.73103933 92.46084404 -133.75170898 80.56323242 C-136.36806474 70.28606395 -139.14597808 60.07049639 -142.23046875 49.921875 C-146.38197845 36.1625857 -146.38197845 36.1625857 -146 30 C-144 28 -144 28 -141.58308983 27.75390434 C-140.55989962 27.75574793 -139.5367094 27.75759151 -138.48251343 27.75949097 C-137.31019669 27.75674164 -136.13787994 27.75399231 -134.93003845 27.75115967 C-133.63747635 27.75835022 -132.34491425 27.76554077 -131.01318359 27.77294922 C-129.64344796 27.77351314 -128.27371172 27.77319715 -126.90397644 27.77206421 C-123.17895442 27.77148893 -119.45406046 27.78327138 -115.72906828 27.79721212 C-111.838642 27.80969046 -107.94821298 27.81088769 -104.05776978 27.81326294 C-96.68774518 27.81948625 -89.31777972 27.83590854 -81.94778121 27.85596192 C-73.55854362 27.87829449 -65.16930326 27.88930769 -56.78004336 27.89935279 C-39.51999467 27.92027406 -22.26000358 27.95546651 -5 28 C-4.90422668 26.99828514 -4.90422668 26.99828514 -4.80651855 25.97633362 C-4.72019165 25.09025925 -4.63386475 24.20418488 -4.54492188 23.29125977 C-4.41821106 21.98016991 -4.41821106 21.98016991 -4.28894043 20.64259338 C-3.85889987 16.70952545 -3.20139152 12.82987571 -2.5 8.9375 C-2.30470703 7.80151367 -2.30470703 7.80151367 -2.10546875 6.64257812 C-1.12580936 1.12580936 -1.12580936 1.12580936 0 0 Z " fill="#292A2F" transform="translate(166,431)"/>
<path d="M0 0 C5.79859158 4.94894901 10.23998943 10.40437956 14.2109375 16.89453125 C14.58734375 17.49265625 14.96375 18.09078125 15.3515625 18.70703125 C19.80086244 26.61689781 21.64421866 36.15777004 24.02050781 44.85888672 C24.88473087 48.01996773 25.76659942 51.17582536 26.6484375 54.33203125 C26.91245361 55.32589844 27.17646973 56.31976563 27.44848633 57.34375 C30.31766613 67.55437858 35.48526492 75.37036193 42.2734375 83.39453125 C50.827818 93.94668861 54.91890146 102.07729524 53.54052734 115.89257812 C52.41030218 122.75764951 48.64929831 128.07873818 43.3359375 132.39453125 C37.05641186 136.53710805 30.72038051 138.42519106 23.2109375 138.89453125 C22.4890625 138.94738281 21.7671875 139.00023437 21.0234375 139.0546875 C14.10704 139.33086309 8.33304763 137.76779733 2.3984375 134.20703125 C-5.97731436 125.352665 -6.10335008 113.41218221 -5.9765625 101.89453125 C-5.9755957 100.17943359 -5.9755957 100.17943359 -5.97460938 98.4296875 C-5.92969217 90.03516092 -5.92969217 90.03516092 -4.7890625 88.89453125 C-3.37715385 88.59989742 -1.9592723 88.33362471 -0.5390625 88.08203125 C3.62297234 87.18213183 6.2225509 86.06403219 9.2109375 82.89453125 C11.99309737 78.39008194 11.75909812 73.02194134 11.2109375 67.89453125 C9.96320244 64.89996711 8.97812956 63.49732501 6.4609375 61.51953125 C3.06981663 60.57755323 0.60102547 61.04700926 -2.7890625 61.89453125 C-5.2091755 63.810747 -5.2091755 63.810747 -6.7890625 65.89453125 C-11.39045891 64.40584418 -14.29133344 62.1482327 -17.7890625 58.89453125 C-17.7890625 58.23453125 -17.7890625 57.57453125 -17.7890625 56.89453125 C-19.10133592 56.49794739 -20.41390926 56.1023561 -21.7265625 55.70703125 C-23.0878125 55.29517578 -23.0878125 55.29517578 -24.4765625 54.875 C-26.9307276 54.14859028 -29.38638957 53.4446868 -31.8515625 52.7578125 C-48.36084685 48.11696235 -61.71503709 42.47303653 -72.7890625 28.89453125 C-76.60331667 30.62899662 -77.92244344 32.0764468 -79.7890625 35.89453125 C-81.68533587 41.40504701 -82.09629552 46.2857487 -82.08984375 52.08984375 C-82.09412888 52.9591452 -82.098414 53.82844666 -82.10282898 54.72409058 C-82.10854832 56.55791355 -82.1090903 58.39175921 -82.10473633 60.22558594 C-82.10159532 62.99064267 -82.12499948 65.75460792 -82.15039062 68.51953125 C-82.21393785 85.87936156 -79.93391606 100.94912983 -67.65234375 114.23828125 C-62.54096998 118.7817246 -55.88859509 121.32567656 -49.02734375 121.1640625 C-39.70877421 120.04193109 -32.4027082 116.49638422 -25.12890625 110.69921875 C-23.0642171 109.106754 -21.15853967 107.95614458 -18.7890625 106.89453125 C-21.31149556 115.03511066 -29.70949976 120.00993943 -36.9140625 123.89453125 C-41.55263395 126.0577112 -45.6981774 126.6481981 -50.7890625 126.89453125 C-50.7890625 131.51453125 -50.7890625 136.13453125 -50.7890625 140.89453125 C-53.2640625 141.88453125 -53.2640625 141.88453125 -55.7890625 142.89453125 C-55.4590625 141.24453125 -55.1290625 139.59453125 -54.7890625 137.89453125 C-55.87703125 137.85714844 -56.965 137.81976563 -58.0859375 137.78125 C-66.99727756 137.40985937 -75.22613127 136.57573116 -83.7890625 133.89453125 C-84.73394531 133.62898437 -85.67882812 133.3634375 -86.65234375 133.08984375 C-94.68281538 130.57962717 -101.12178901 126.35825606 -105.5 119.03125 C-108.77529983 111.06135374 -107.57379942 103.10095096 -104.42993164 95.34985352 C-103.18543473 92.47109792 -101.90632355 89.60937281 -100.609375 86.75390625 C-95.60139411 75.40248291 -94.75922272 63.13106965 -94.2890625 50.89453125 C-93.49619776 31.56032962 -90.45017634 16.71219691 -75.7890625 2.89453125 C-54.37083473 -16.58011868 -23.05817022 -17.40665791 0 0 Z " fill="#2A2B30" transform="translate(263.7890625,229.10546875)"/>
<path d="M0 0 C3.28713131 1.39756559 4.99488612 2.95644751 7.1875 5.75 C16.0734595 16.07038064 28.66249293 19.92849481 41.52734375 23.171875 C50.03734896 25.34865754 55.76285706 27.42283177 62.01953125 34.01171875 C63.93838466 35.9381416 65.51353714 36.95512684 68 38 C68.33 37.01 68.66 36.02 69 35 C72.42936795 32.7137547 74.47896119 31.99101657 78.625 32.0625 C82.30594658 33.08498516 83.70405547 33.997611 86 37 C87.81205684 42.43617053 87.7099836 47.98215186 85.8125 53.375 C82.6181849 58.00124946 79.78036225 59.98379512 74.3203125 61.109375 C73.51094238 61.27920898 72.70157227 61.44904297 71.86767578 61.62402344 C71.25134277 61.7480957 70.63500977 61.87216797 70 62 C69.91140125 65.91651903 69.85908083 69.83277374 69.8125 73.75 C69.78736328 74.84183594 69.76222656 75.93367188 69.73632812 77.05859375 C69.65256405 86.49601308 70.34322962 96.92237243 76.4609375 104.59765625 C79.24997028 107.13893231 82.52304691 108.6109443 86 110 C85.25033555 114.77251169 82.54307823 116.80814593 78.984375 119.83984375 C65.39842226 129.67365509 49.8206778 134.68957701 33 133 C27.17762344 131.49588606 23.27140855 129.17973021 20 124 C18.58558126 121.17116253 18.68099668 119.12623255 19 116 C19.65097656 115.59007812 20.30195313 115.18015625 20.97265625 114.7578125 C23.34953586 113.06766532 23.34953586 113.06766532 23.609375 109.64453125 C23.67898437 107.74767578 23.67898437 107.74767578 23.75 105.8125 C23.80671875 104.54019531 23.8634375 103.26789063 23.921875 101.95703125 C23.94765625 100.98121094 23.9734375 100.00539063 24 99 C24.66644531 98.85304688 25.33289063 98.70609375 26.01953125 98.5546875 C36.74226739 95.94523843 48.57648185 91.03462262 54.6875 81.31640625 C55.120625 80.55199219 55.55375 79.78757812 56 79 C55.2265625 79.60328125 54.453125 80.2065625 53.65625 80.828125 C43.71319156 88.45769955 34.10105459 95.14921531 21 94 C12.658083 92.33766147 7.04710849 88.15237228 2.05078125 81.34375 C-5.29104383 70.13861655 -8.31557171 59.64489634 -8.30078125 46.3359375 C-8.30506638 45.45902252 -8.3093515 44.58210754 -8.31376648 43.67861938 C-8.31946191 41.84174456 -8.32004581 40.0048472 -8.31567383 38.16796875 C-8.31249955 35.37460795 -8.33608217 32.58229404 -8.36132812 29.7890625 C-8.36360037 27.99218882 -8.36430496 26.19531233 -8.36328125 24.3984375 C-8.372491 23.57427338 -8.38170074 22.75010925 -8.39118958 21.90097046 C-8.32702688 13.78410412 -5.89038399 5.89038399 0 0 Z " fill="#FAFAFA" transform="translate(189,257)"/>
<path d="M0 0 C0.99 0 1.98 0 3 0 C4.48679725 2.97359449 4.11112605 5.66299179 4.09765625 8.9765625 C4.0962413 9.66181 4.09482635 10.3470575 4.09336853 11.05307007 C4.08776675 13.24375761 4.07521406 15.4343433 4.0625 17.625 C4.05748522 19.10937352 4.05292228 20.59374865 4.04882812 22.078125 C4.03779677 25.71878315 4.02053099 29.35938164 4 33 C6.91439474 31.27522092 9.63557355 29.60537003 12.1875 27.375 C16.34902332 23.86082475 18.53838172 23.54486514 24 24 C28.79524431 26.44463435 31.40397725 29.30718964 34 34 C34 34.99 34 35.98 34 37 C30.625 37.1875 30.625 37.1875 27 37 C26.34 36.01 25.68 35.02 25 34 C22.0850745 33.4161804 22.0850745 33.4161804 19 34 C16.69724444 35.8670991 15.32176129 37.35647741 14 40 C13.59645546 44.19686322 13.80927191 46.59653673 15.625 50.4375 C17.77711044 53.25582438 17.77711044 53.25582438 21 53.625 C24.77051722 52.83947558 25.82371402 52.18670447 28 49 C28.89890462 46.03259326 29.50331593 43.05852821 30 40 C32.375 39.375 32.375 39.375 35 39 C37.42455474 41.42455474 37.43213418 42.26507444 37.625 45.625 C37.43588224 56.69566262 29.93906885 67.43349485 23.34765625 75.88671875 C20.88964958 79.74115819 20.85867135 84.04254689 20.68359375 88.51953125 C20.64548584 89.44096924 20.60737793 90.36240723 20.56811523 91.31176758 C20.52501221 92.46700928 20.48190918 93.62225098 20.4375 94.8125 C20.293125 98.504375 20.14875 102.19625 20 106 C10.43 106 0.86 106 -9 106 C-9.375 92.5 -9.375 92.5 -9.47802734 88.29101562 C-9.77704363 78.91191639 -11.31544165 71.33366576 -14.6875 62.5625 C-14.94515137 61.88292236 -15.20280273 61.20334473 -15.46826172 60.50317383 C-17.43448277 55.36197001 -19.51427232 50.27077891 -21.625 45.1875 C-29 27.41898907 -29 27.41898907 -29 22 C-26.75 21.625 -26.75 21.625 -24 22 C-20.87786797 26.14186064 -18.54080672 30.60939583 -16.25 35.25 C-15.93417969 35.87390625 -15.61835937 36.4978125 -15.29296875 37.140625 C-13 41.74641504 -13 41.74641504 -13 44 C-12.34 44 -11.68 44 -11 44 C-11.27714844 43.10796875 -11.55429688 42.2159375 -11.83984375 41.296875 C-12.20207031 40.12640625 -12.56429687 38.9559375 -12.9375 37.75 C-13.29714844 36.58984375 -13.65679687 35.4296875 -14.02734375 34.234375 C-15.22861805 30.23977611 -16.12753854 26.85539576 -16.09765625 22.671875 C-16.09443359 21.87265625 -16.09121094 21.0734375 -16.08789062 20.25 C-16.07951172 19.425 -16.07113281 18.6 -16.0625 17.75 C-16.05798828 16.90953125 -16.05347656 16.0690625 -16.04882812 15.203125 C-16.03707961 13.13538599 -16.01914522 11.06768376 -16 9 C-15.01 9 -14.02 9 -13 9 C-11.0399436 11.94008459 -10.35842863 14.27935347 -9.57421875 17.6796875 C-8.74255972 21.04026889 -7.6596198 24.31532349 -6.5859375 27.60546875 C-5.96239627 30.15367392 -5.89788375 32.38675228 -6 35 C-5.34 35 -4.68 35 -4 35 C-4.02320312 33.77925781 -4.04640625 32.55851562 -4.0703125 31.30078125 C-4.39723042 6.59584563 -4.39723042 6.59584563 0 0 Z " fill="#F9F9F9" transform="translate(107,326)"/>
<path d="M0 0 C1.32946279 0.71950327 2.64439057 1.46704134 3.9375 2.25 C4.989375 2.806875 6.04125 3.36375 7.125 3.9375 C12.38470457 8.26214598 16.61747787 14.51788716 17.9375 21.25 C18.78879816 30.38815364 17.73197473 37.9395729 12.32421875 45.5078125 C5.77458133 53.37899539 -1.67292423 57.38614818 -11.8359375 58.57421875 C-18.48074279 58.8441058 -23.30046947 57.49255443 -29.0625 54.25 C-30.114375 53.693125 -31.16625 53.13625 -32.25 52.5625 C-38.19065263 47.6779634 -42.64044473 40.54416696 -43.3984375 32.83203125 C-43.50517078 22.53226938 -42.57753188 14.6691779 -35.3125 6.875 C-26.01796418 -1.72461725 -11.94023248 -5.20471672 0 0 Z " fill="#D9CFF1" transform="translate(352.0625,173.75)"/>
<path d="M0 0 C1.63630371 -0.00505302 1.63630371 -0.00505302 3.30566406 -0.01020813 C5.60877199 -0.00990953 7.91191975 0.00531564 10.21484375 0.03442383 C13.73821412 0.07408608 17.25781806 0.0551321 20.78125 0.02929688 C23.02084792 0.03685632 25.2604375 0.04781011 27.5 0.0625 C28.55219727 0.0555159 29.60439453 0.0485318 30.68847656 0.04133606 C35.34362271 0.13112 37.97966946 0.2482442 41.91821289 2.87353516 C44.16599893 6.41762536 44.35525877 8.49186282 44.30859375 12.671875 C44.30150391 13.99123047 44.29441406 15.31058594 44.28710938 16.66992188 C44.27059326 17.3519165 44.25407715 18.03391113 44.23706055 18.73657227 C44.18755896 20.82173502 44.17557151 22.90453634 44.16992188 24.99023438 C44.02796275 36.6024904 44.02796275 36.6024904 41.75 39.76171875 C38.60198729 41.96012432 35.88079387 41.99715273 32.109375 41.95703125 C31.03945313 41.95058594 29.96953125 41.94414062 28.8671875 41.9375 C27.75601563 41.92074219 26.64484375 41.90398437 25.5 41.88671875 C24.37335938 41.87769531 23.24671875 41.86867187 22.0859375 41.859375 C19.30707635 41.83582533 16.5286461 41.80293555 13.75 41.76171875 C13.42 42.75171875 13.09 43.74171875 12.75 44.76171875 C11.19140625 46.3671875 11.19140625 46.3671875 9.3125 47.94921875 C8.69503906 48.47902344 8.07757813 49.00882813 7.44140625 49.5546875 C5.75 50.76171875 5.75 50.76171875 3.75 50.76171875 C3.75 47.79171875 3.75 44.82171875 3.75 41.76171875 C2.71359375 41.808125 1.6771875 41.85453125 0.609375 41.90234375 C-0.76038779 41.9398715 -2.13018182 41.97627059 -3.5 42.01171875 C-4.52287109 42.06199219 -4.52287109 42.06199219 -5.56640625 42.11328125 C-9.02111858 42.18036304 -10.87808376 42.04245552 -13.671875 39.93359375 C-17.64128999 34.47073549 -16.55359533 27.41134147 -16.625 20.94921875 C-16.66238281 19.67755859 -16.69976562 18.40589844 -16.73828125 17.09570312 C-16.74988281 15.86529297 -16.76148438 14.63488281 -16.7734375 13.3671875 C-16.79325684 12.24465576 -16.81307617 11.12212402 -16.83349609 9.96557617 C-16.23020154 6.65300948 -15.36195297 4.40479023 -13.03823853 1.91630554 C-9.14935516 -0.59457503 -4.47480304 -0.06499343 0 0 Z " fill="#D9CDF3" transform="translate(244.25,137.23828125)"/>
<path d="M0 0 C6.08139832 4.23403015 10.06133153 8.75742723 12 16 C13.13369372 23.53189621 11.1943852 30.7084222 7 37 C6.34 37 5.68 37 5 37 C4.7525 37.61875 4.505 38.2375 4.25 38.875 C3 41 3 41 1 41.875 C-1.29175724 42.9019986 -1.29175724 42.9019986 -2.25 45.8125 C-3.19086611 49.26542319 -3.19086611 49.26542319 -3 54 C-9.27 54 -15.54 54 -22 54 C-22 52.02 -22 50.04 -22 48 C-22.91257306 45.21433941 -22.91257306 45.21433941 -24 43 C-24.66 43 -25.32 43 -26 43 C-26 42.34 -26 41.68 -26 41 C-26.90878906 40.62101562 -26.90878906 40.62101562 -27.8359375 40.234375 C-32.24965747 37.71680188 -34.26397913 32.61223619 -36.3125 28.125 C-37.83058123 21.22463078 -37.9461536 15.96039022 -34.375 9.6875 C-26.5735644 -1.914635 -12.80576834 -7.2177967 0 0 Z " fill="#D9CDF2" transform="translate(134,179)"/>
<path d="M0 0 C0.87430664 -0.00630432 1.74861328 -0.01260864 2.64941406 -0.019104 C4.06818848 -0.01303131 4.06818848 -0.01303131 5.515625 -0.00683594 C6.48467773 -0.00874939 7.45373047 -0.01066284 8.45214844 -0.01263428 C10.50325785 -0.01399673 12.55437586 -0.01029612 14.60546875 -0.00195312 C17.75280039 0.00874547 20.8995612 -0.00184647 24.046875 -0.01464844 C26.0364596 -0.01332685 28.02604384 -0.01076448 30.015625 -0.00683594 C30.96147461 -0.0108844 31.90732422 -0.01493286 32.88183594 -0.019104 C33.75614258 -0.01279968 34.63044922 -0.00649536 35.53125 0 C36.68802246 0.00238678 36.68802246 0.00238678 37.86816406 0.00482178 C39.765625 0.25878906 39.765625 0.25878906 41.765625 2.25878906 C42.16425996 6.51621045 42.09465041 10.78826481 42.08129883 15.06225586 C42.07814189 17.18493112 42.10158261 19.30620842 42.12695312 21.42871094 C42.12922646 22.77701647 42.12992946 24.12532575 42.12890625 25.47363281 C42.13188721 26.70202881 42.13486816 27.9304248 42.13793945 29.19604492 C41.765625 32.25878906 41.765625 32.25878906 40.50163269 33.9259491 C38.36909387 35.56323042 37.28353046 35.63825984 34.6171875 35.64697266 C33.37074463 35.66115738 33.37074463 35.66115738 32.09912109 35.67562866 C31.20531738 35.66955597 30.31151367 35.66348328 29.390625 35.65722656 C28.00931396 35.66153183 28.00931396 35.66153183 26.60009766 35.66592407 C24.65331406 35.66796537 22.70650998 35.6624309 20.75976562 35.64990234 C17.77687801 35.63384962 14.79534539 35.64974878 11.8125 35.66894531 C9.921872 35.66696289 8.03124485 35.66311924 6.140625 35.65722656 C5.24682129 35.66329926 4.35301758 35.66937195 3.43212891 35.67562866 C2.18568604 35.66144394 2.18568604 35.66144394 0.9140625 35.64697266 C0.18364746 35.64458588 -0.54676758 35.6421991 -1.29931641 35.63973999 C-3.81182916 35.14510687 -4.70113573 34.28107607 -6.234375 32.25878906 C-6.60668945 29.19604492 -6.60668945 29.19604492 -6.59765625 25.47363281 C-6.59815475 24.81673965 -6.59865326 24.1598465 -6.59916687 23.48304749 C-6.59682988 22.09698454 -6.58712325 20.71091708 -6.57055664 19.32495117 C-6.54691961 17.20029922 -6.55000308 15.07689884 -6.55664062 12.95214844 C-6.50308461 0.01341788 -6.50308461 0.01341788 0 0 Z " fill="#D8CDF2" transform="translate(53.234375,269.7412109375)"/>
<path d="M0 0 C3.46566271 0.4728991 6.86280057 0.54335951 10.359375 0.5546875 C11.43034424 0.5657251 12.50131348 0.5767627 13.60473633 0.58813477 C15.75048581 0.59953551 17.89668857 0.57878707 20.04174805 0.52319336 C27.3862415 0.59035592 27.3862415 0.59035592 30.09326172 3.21386719 C33.61243293 8.72005344 34.46612609 13.64369246 34.4296875 20.10546875 C34.43355469 20.79898438 34.43742187 21.4925 34.44140625 22.20703125 C34.43135396 27.35380229 34.43135396 27.35380229 33.3046875 28.48046875 C22.57955292 29.1877479 13.30780267 28.79677356 3.3046875 24.48046875 C-4.99522728 20.94116575 -10.5783522 22.63628509 -18.7734375 25.58984375 C-22.6238141 26.76348796 -25.70615909 26.7873267 -29.6953125 26.48046875 C-23.49289357 18.1166008 -16.79365272 15.2570286 -6.6953125 13.48046875 C-6.6953125 12.82046875 -6.6953125 12.16046875 -6.6953125 11.48046875 C-15.31896347 13.44464088 -24.2583227 16.95226736 -29.75 24.1875 C-31.6953125 26.48046875 -31.6953125 26.48046875 -33.8359375 26.96875 C-34.53203125 26.91074219 -35.228125 26.85273437 -35.9453125 26.79296875 C-37.1828125 26.68984375 -38.4203125 26.58671875 -39.6953125 26.48046875 C-39.9746122 23.49609969 -40.02684022 21.96109133 -38.296875 19.453125 C-31.87530966 13.24730395 -25.06281938 8.66101311 -16.6953125 5.48046875 C-26.48893544 6.70467162 -32.86751344 12.93249752 -39.6953125 19.48046875 C-40.6853125 18.16046875 -41.6753125 16.84046875 -42.6953125 15.48046875 C-39.2113606 7.58121147 -31.30171378 3.11692116 -23.76171875 -0.421875 C-15.89616674 -3.23744203 -8.02232413 -1.33109832 0 0 Z " fill="#F7F7F7" transform="translate(237.6953125,521.51953125)"/>
<path d="M0 0 C5.10502587 4.56048978 9.42193672 9.39801571 10.30078125 16.39453125 C10.33511032 23.4777622 9.03584307 28.63302877 5.375 34.6875 C0.17254771 39.75304565 -4.78865894 42.30693839 -12.125 42.5 C-18.55558075 42.22147803 -22.64594447 40.56937035 -28 37 C-28 36.34 -28 35.68 -28 35 C-28.66 35 -29.32 35 -30 35 C-35.46096619 27.71871175 -35.93358052 20.96022679 -35 12 C-32.53567776 5.15957191 -26.77210938 0.12785657 -20.5625 -3.375 C-13.0744456 -5.20135473 -6.58354403 -3.91679202 0 0 Z " fill="#D9CDF2" transform="translate(388,355)"/>
<path d="M0 0 C0.85428589 -0.00630432 1.70857178 -0.01260864 2.58874512 -0.019104 C3.51272095 -0.01505554 4.43669678 -0.01100708 5.38867188 -0.00683594 C6.80895691 -0.00970612 6.80895691 -0.00970612 8.25793457 -0.01263428 C10.26196559 -0.01399667 12.26600542 -0.0102965 14.27001953 -0.00195312 C17.34492741 0.00874559 20.41925101 -0.00184666 23.49414062 -0.01464844 C25.43815234 -0.01332685 27.38216368 -0.01076448 29.32617188 -0.00683594 C30.71213562 -0.01290863 30.71213562 -0.01290863 32.12609863 -0.019104 C33.40752747 -0.00964752 33.40752747 -0.00964752 34.71484375 0 C35.4682605 0.00159119 36.22167725 0.00318237 36.9979248 0.00482178 C38.85742188 0.25878906 38.85742188 0.25878906 40.85742188 2.25878906 C41.11621094 4.74902344 41.11621094 4.74902344 41.12304688 7.85253906 C41.12691406 9.52123047 41.12691406 9.52123047 41.13085938 11.22363281 C41.123125 12.39023437 41.11539063 13.55683594 41.10742188 14.75878906 C41.11902344 16.50869141 41.11902344 16.50869141 41.13085938 18.29394531 C41.12828125 19.40640625 41.12570312 20.51886719 41.12304688 21.66503906 C41.12079102 22.68919922 41.11853516 23.71335937 41.11621094 24.76855469 C40.85742188 27.25878906 40.85742188 27.25878906 38.85742188 29.25878906 C36.46240234 29.46655273 36.46240234 29.46655273 33.47460938 29.42675781 C31.84652344 29.43739258 31.84652344 29.43739258 30.18554688 29.44824219 C27.90680617 29.44695331 25.62798553 29.42652144 23.34960938 29.38574219 C17.39741473 29.45944271 13.71358245 29.7400148 9.17773438 33.80957031 C8.57461426 34.45192627 7.97149414 35.09428223 7.35009766 35.75610352 C6.85751465 36.25198975 6.36493164 36.74787598 5.85742188 37.25878906 C5.19742187 37.25878906 4.53742188 37.25878906 3.85742188 37.25878906 C3.52742188 34.94878906 3.19742187 32.63878906 2.85742188 30.25878906 C1.55804688 30.13503906 0.25867188 30.01128906 -1.08007812 29.88378906 C-3.29492188 29.67285156 -3.29492188 29.67285156 -5.14257812 29.25878906 C-7.25947406 25.0249972 -6.32750818 19.41039124 -6.33007812 14.75878906 C-6.34232422 13.5921875 -6.35457031 12.42558594 -6.3671875 11.22363281 C-6.36912109 10.11117188 -6.37105469 8.99871094 -6.37304688 7.85253906 C-6.37715576 6.82837891 -6.38126465 5.80421875 -6.38549805 4.74902344 C-5.95950081 0.38201663 -3.90401042 0.00824512 0 0 Z " fill="#D9CEF2" transform="translate(357.142578125,262.7412109375)"/>
<path d="M0 0 C2.92902873 0.31665175 4.54560252 0.53319321 6.63598633 2.68066406 C8.33188726 5.5643331 8.4266728 7.52557359 8.51171875 10.859375 C8.54716797 11.97441406 8.58261719 13.08945312 8.61914062 14.23828125 C8.65297852 15.97658203 8.65297852 15.97658203 8.6875 17.75 C8.72166016 18.92433594 8.75582031 20.09867187 8.79101562 21.30859375 C8.87345173 24.20563389 8.94261811 27.10237298 9 30 C9.88816406 29.19691406 10.77632812 28.39382813 11.69140625 27.56640625 C15.84631873 24.11596412 19.65828713 23.56826093 25 24 C31.54114032 26.1224573 35.14842319 31.10178056 38.25 36.9375 C41.03244053 43.77531945 41.81018304 51.13108021 39.19580078 58.16308594 C36.59892768 63.94261197 33.64655888 70.05617398 29.38720703 74.79394531 C23.89735713 80.95999802 24.10810572 87.00055878 24.125 95 C24.104375 96.25167969 24.08375 97.50335938 24.0625 98.79296875 C24.01563465 101.86264948 23.99553784 104.93003655 24 108 C23.34 108 22.68 108 22 108 C20.80048557 90.37082876 20.4928035 78.68565813 32 65 C36.42264569 57.66132418 37.74165901 51.520838 37 43 C35.35 42.67 33.7 42.34 32 42 C31.82984375 42.75925781 31.6596875 43.51851563 31.484375 44.30078125 C31.24203125 45.29464844 30.9996875 46.28851563 30.75 47.3125 C30.51796875 48.29863281 30.2859375 49.28476562 30.046875 50.30078125 C28.84789606 53.39217844 27.84782987 54.37496714 25 56 C22.0625 56.625 22.0625 56.625 19 56 C15.57450283 52.96803253 14.1454688 49.92130241 13.4375 45.4375 C14.10022982 41.38748444 15.43313668 39.17083116 18 36 C20.70879335 34.64560332 23.00933268 34.93498549 26 35 C26.66 36.32 27.32 37.64 28 39 C30.31 39 32.62 39 35 39 C31.5629739 31.47448101 31.5629739 31.47448101 25 27 C20.72252052 26.45559352 18.61278968 26.66356645 14.8125 28.75 C12.01004413 30.89631871 12.01004413 30.89631871 9.8125 33.25 C8 35 8 35 5 35 C4.67 24.11 4.34 13.22 4 2 C3.01 2.33 2.02 2.66 1 3 C-1.94164895 11.00782214 -2.16680545 19.55419165 -2.5625 28 C-2.60568359 28.87011719 -2.64886719 29.74023438 -2.69335938 30.63671875 C-2.79824218 32.75768219 -2.89950075 34.87882433 -3 37 C-3.66 37 -4.32 37 -5 37 C-5.25394531 36.03320312 -5.50789063 35.06640625 -5.76953125 34.0703125 C-6.83156976 30.04285524 -7.91101404 26.02024899 -9 22 C-9.28488281 20.948125 -9.56976563 19.89625 -9.86328125 18.8125 C-10.11464844 17.925625 -10.36601563 17.03875 -10.625 16.125 C-10.84414062 15.34382813 -11.06328125 14.56265625 -11.2890625 13.7578125 C-11.85707237 11.79583892 -11.85707237 11.79583892 -14 11 C-14.31641558 21.54718587 -14.09614346 30.81320677 -11 41 C-10.64811103 42.66284787 -10.30906243 44.32866242 -10 46 C-10.66 46 -11.32 46 -12 46 C-12.54269531 44.90300781 -13.08539063 43.80601562 -13.64453125 42.67578125 C-14.3670797 41.22130061 -15.08974196 39.7668765 -15.8125 38.3125 C-16.34713867 37.2306543 -16.34713867 37.2306543 -16.89257812 36.12695312 C-17.91312082 34.07650496 -18.95554191 32.03833583 -20 30 C-20.47824219 29.02417969 -20.95648438 28.04835938 -21.44921875 27.04296875 C-22.87373544 24.75098839 -22.87373544 24.75098839 -25.6875 24.1875 C-26.8321875 24.0946875 -26.8321875 24.0946875 -28 24 C-24.72148224 33.49840074 -21.30520873 42.89375453 -17.51953125 52.203125 C-15.55454529 57.064893 -13.7347174 61.98070486 -11.91601562 66.89868164 C-10.58680474 70.50392467 -10.58680474 70.50392467 -9 74 C-8.91341431 76.55362604 -8.88437484 79.0795442 -8.90234375 81.6328125 C-8.9037587 82.38464813 -8.90517365 83.13648376 -8.90663147 83.91110229 C-8.91223535 86.3157751 -8.92478843 88.72035527 -8.9375 91.125 C-8.9425145 92.75390491 -8.9470775 94.38281127 -8.95117188 96.01171875 C-8.96220603 100.00784827 -8.97947321 104.00390842 -9 108 C-9.33 108 -9.66 108 -10 108 C-10.03963867 107.15928955 -10.07927734 106.3185791 -10.12011719 105.45239258 C-10.27840452 102.2663134 -10.45181583 99.08147958 -10.63476562 95.89672852 C-10.7102845 94.53082883 -10.78015303 93.16460237 -10.84375 91.7980957 C-11.54381101 76.92726853 -16.04886281 64.43066854 -21.5625 50.6875 C-22.52263967 48.2749402 -23.48228845 45.86218498 -24.44140625 43.44921875 C-24.88540771 42.33224609 -25.32940918 41.21527344 -25.78686523 40.06445312 C-30.58136173 27.95325973 -30.58136173 27.95325973 -30 24 C-28 22 -28 22 -26.125 21.8828125 C-25.073125 22.00269531 -25.073125 22.00269531 -24 22.125 C-23.29875 22.18945312 -22.5975 22.25390625 -21.875 22.3203125 C-20 23 -20 23 -18.75 25.0546875 C-18.5025 25.69664062 -18.255 26.33859375 -18 27 C-17.95101562 25.79601562 -17.90203125 24.59203125 -17.8515625 23.3515625 C-17.77653657 21.77601802 -17.70098867 20.20049834 -17.625 18.625 C-17.57859375 17.43390625 -17.57859375 17.43390625 -17.53125 16.21875 C-17.2265625 10.2265625 -17.2265625 10.2265625 -15 8 C-12.375 7.875 -12.375 7.875 -10 8 C-7.96402124 12.42604077 -6.70879516 16.14165647 -6 21 C-5.81824219 19.98679687 -5.63648437 18.97359375 -5.44921875 17.9296875 C-5.19578418 16.57803647 -4.94185135 15.22647881 -4.6875 13.875 C-4.56955078 13.20984375 -4.45160156 12.5446875 -4.33007812 11.859375 C-3.49295526 7.48057846 -2.16361303 3.89086713 0 0 Z " fill="#36353B" transform="translate(106,324)"/>
<path d="M0 0 C0.99 0.33 1.98 0.66 3 1 C0 6 0 6 -3 11 C0.63 11 4.26 11 8 11 C8 9.35 8 7.7 8 6 C9.875 3.6875 9.875 3.6875 12 2 C12.66 2 13.32 2 14 2 C13.01 5.3 12.02 8.6 11 12 C17.27 12 23.54 12 30 12 C30 12.99 30 13.98 30 15 C23.07 15 16.14 15 9 15 C9.66 19.95 10.32 24.9 11 30 C16.61 30.33 22.22 30.66 28 31 C27.67 31.99 27.34 32.98 27 34 C22.05 34 17.1 34 12 34 C12.928125 35.93875 13.85625 37.8775 14.8125 39.875 C15.33457031 40.96554688 15.85664063 42.05609375 16.39453125 43.1796875 C17.84724897 46.22221402 17.84724897 46.22221402 21 48 C21.268125 47.43796875 21.53625 46.8759375 21.8125 46.296875 C23.0803979 43.84449354 24.48972342 41.56072317 26 39.25 C26.515625 38.45078125 27.03125 37.6515625 27.5625 36.828125 C28.2740625 35.92320312 28.2740625 35.92320312 29 35 C29.66 35 30.32 35 31 35 C30.52389341 39.99911924 28.96837781 42.97832683 26 47 C28.64 46.67 31.28 46.34 34 46 C33.7421875 47.890625 33.7421875 47.890625 33 50 C27.23418494 53.59357776 19.55228069 53.86040049 13 53 C9.77075214 52.01145474 6.93757223 50.65310437 4 49 C2.948125 48.443125 1.89625 47.88625 0.8125 47.3125 C-5.12815263 42.4279634 -9.57794473 35.29416696 -10.3359375 27.58203125 C-10.43625609 17.9012874 -9.83661685 9.61275323 -2.75 2.375 C-1.8425 1.59125 -0.935 0.8075 0 0 Z " fill="#D8CFF0" transform="translate(319,179)"/>
<path d="M0 0 C2.39569376 1.04811602 3.44397481 1.75314747 5 3.875 C8.59941879 13.3471547 7.33694203 20.12131389 3.2890625 29.17578125 C2 31.875 2 31.875 0.875 33.77734375 C-0.410101 36.85814392 -0.44063948 39.80651057 -0.625 43.125 C-0.69976562 44.38828125 -0.77453125 45.6515625 -0.8515625 46.953125 C-0.90054688 47.91734375 -0.94953125 48.8815625 -1 49.875 C-0.34 49.875 0.32 49.875 1 49.875 C1.0928125 48.6375 1.0928125 48.6375 1.1875 47.375 C2.71805412 40.78184377 6.32808507 35.61016349 12 31.875 C17.35714286 28.875 17.35714286 28.875 21 28.875 C21.88174959 37.33979605 19.34024401 41.75536573 14.125 48.1875 C9.59194378 51.78727994 5.74548556 52.875 0 52.875 C1.32 58.815 2.64 64.755 4 70.875 C3.34 70.875 2.68 70.875 2 70.875 C1.32635339 68.79391315 0.66133202 66.7100329 0 64.625 C-0.37125 63.46484375 -0.7425 62.3046875 -1.125 61.109375 C-2 57.875 -2 57.875 -2 53.875 C-2.71285156 53.90980469 -3.42570312 53.94460938 -4.16015625 53.98046875 C-11.89968911 54.19921732 -16.7202381 53.70752164 -22.75 48.5 C-26.4552779 44.17717578 -28.18128154 41.59968033 -28 35.875 C-20.85088693 36.03614804 -15.46598117 37.06306786 -10 41.875 C-7.79531271 44.41886995 -5.84383349 47.06036025 -4 49.875 C-3.58776399 43.00439984 -3.41784069 37.51193219 -7.02734375 31.49609375 C-10.51697239 25.68004602 -9.47564081 17.41827498 -9 10.875 C-7.79960438 6.72709831 -5.03319322 -0.31457458 0 0 Z " fill="#D9CFF2" transform="translate(55,386.125)"/>
<path d="M0 0 C3.53571429 0.53571429 3.53571429 0.53571429 5 2 C5.21103236 9.06222255 2.71586388 13.97351598 -0.9375 19.8125 C-5.06230322 26.75170485 -7.64575854 32.78803888 -8 41 C-7.731875 40.35933594 -7.46375 39.71867187 -7.1875 39.05859375 C-4.35307724 32.80235141 -1.10843008 27.4938369 5 24 C7.75 23.8203125 7.75 23.8203125 10 24 C10.875 26.0625 10.875 26.0625 11 29 C8.18595649 33.882866 3.93329375 37.00696712 -0.875 39.76171875 C-1.57625 40.17035156 -2.2775 40.57898438 -3 41 C-4.03382813 41.50015625 -5.06765625 42.0003125 -6.1328125 42.515625 C-10.32510409 46.14818284 -10.3288415 49.72607631 -10.875 55.0625 C-10.99101562 55.97322266 -11.10703125 56.88394531 -11.2265625 57.82226562 C-11.64975305 61.24053692 -12 64.55328336 -12 68 C-11.79246094 67.443125 -11.58492188 66.88625 -11.37109375 66.3125 C-8.86260464 60.09900396 -5.25190123 53.12595061 1 50 C2.99960012 49.960008 5.00047242 49.95653201 7 50 C7.43405531 53.73287568 7.41587568 55.44549909 5.125 58.5 C2.64455527 60.71822629 -0.12181222 62.28361598 -3 63.9375 C-8.1290879 66.96312838 -12.03301793 69.61556276 -13.75 75.625 C-14.21693587 77.66253834 -14.67092614 79.70307795 -15.11328125 81.74609375 C-16.55572036 87.03927339 -19.03576859 94.03576859 -23 98 C-23.23481693 100.18292774 -23.41363323 102.37203174 -23.5625 104.5625 C-23.68818359 106.35880859 -23.68818359 106.35880859 -23.81640625 108.19140625 C-23.87699219 109.11824219 -23.93757813 110.04507813 -24 111 C-24.33 111 -24.66 111 -25 111 C-25 105.39 -25 99.78 -25 94 C-24.01 93.505 -24.01 93.505 -23 93 C-18.46510412 83.91184833 -15.81292508 74.08027104 -15 64 C-15.66 64 -16.32 64 -17 64 C-17 63.34 -17 62.68 -17 62 C-17.99 61.67 -18.98 61.34 -20 61 C-23.34396312 57.2085479 -26.40695727 53.14653572 -26.375 47.9375 C-26.189375 46.4834375 -26.189375 46.4834375 -26 45 C-24.25 44.25 -24.25 44.25 -22 44 C-17.86220673 46.97403891 -16.0599086 51.48573222 -14 56 C-12.18588783 49.80803036 -11.42789722 42.26997378 -14.26953125 36.359375 C-15.78745719 34.18774372 -17.38116138 32.09674044 -19 30 C-21.53942905 24.6902847 -21.64433533 18.799018 -21 13 C-20.34 12.34 -19.68 11.68 -19 11 C-16.375 11.375 -16.375 11.375 -14 12 C-12.35318751 18.30760257 -10.73690113 24.51527007 -10 31 C-9.83564453 29.90945313 -9.83564453 29.90945313 -9.66796875 28.796875 C-6.08675799 6.08675799 -6.08675799 6.08675799 0 0 Z " fill="#D8CEF0" transform="translate(401,419)"/>
<path d="M0 0 C0.66 0 1.32 0 2 0 C18.53728505 47.01936973 18.53728505 47.01936973 22 65 C23.00160156 64.855625 24.00320313 64.71125 25.03515625 64.5625 C26.37756922 64.37474993 27.72001915 64.18726406 29.0625 64 C29.71927734 63.90460938 30.37605469 63.80921875 31.05273438 63.7109375 C35.40138763 63.11112326 39.61329071 62.90872907 44 63 C44 63.99 44 64.98 44 66 C43.01418945 66.13051758 42.02837891 66.26103516 41.01269531 66.39550781 C15.44034489 69.77415507 15.44034489 69.77415507 -9.89892578 74.55029297 C-18.86256333 76.46884054 -27.86380547 78.18426835 -37 79 C-36.67 79.99 -36.34 80.98 -36 82 C-39.82827892 83.91413946 -44.53956384 83.19014724 -48.75 83.1875 C-50.31476074 83.1884668 -50.31476074 83.1884668 -51.91113281 83.18945312 C-58.77829427 83.14263641 -65.23294406 82.57352471 -72.0078125 81.46875 C-82.30673605 79.85534161 -89.13589011 81.33237911 -98 87 C-100.83017765 89.18477504 -103.46502052 91.47993216 -106 94 C-106.99 93.34 -107.98 92.68 -109 92 C-89.4094924 76.54975431 -89.4094924 76.54975431 -75 78 C-72.24932593 78.45093018 -69.51607153 78.96994485 -66.77734375 79.48828125 C-57.92720275 80.68721452 -48.91951271 80.72112352 -40 81 C-40 79.68 -40 78.36 -40 77 C-35.62687254 76.15818641 -31.25267005 75.32226122 -26.87744141 74.49145508 C-25.39341906 74.20883777 -23.90968623 73.92469527 -22.42626953 73.63891602 C-14.30350783 72.07516115 -6.25908014 70.64345891 2 70 C1.9484375 69.10796875 1.896875 68.2159375 1.84375 67.296875 C1.84375 60.39399855 3.78811851 53.58237499 5.22265625 46.8671875 C7.69151412 34.76273003 7.4496499 25.7269528 3.5 14 C2.84034248 11.98027641 2.18393385 9.95948794 1.53125 7.9375 C1.23798828 7.05964844 0.94472656 6.18179687 0.64257812 5.27734375 C0 3 0 3 0 0 Z " fill="#2B2938" transform="translate(303,440)"/>
<path d="M0 0 C7.26 0 14.52 0 22 0 C22.125 11.625 22.125 11.625 21 15 C14.4 15 7.8 15 1 15 C0 11 0 11 0 0 Z " fill="#F6F0FD" transform="translate(328,194)"/>
<path d="M0 0 C0.33 0 0.66 0 1 0 C1 9.24 1 18.48 1 28 C10.57 28 20.14 28 30 28 C30 20.41 30 12.82 30 5 C30.33 5 30.66 5 31 5 C31 12.59 31 20.18 31 28 C31.66 28.33 32.32 28.66 33 29 C21.45 29 9.9 29 -2 29 C-2 35.6 -2 42.2 -2 49 C-1.34 49.33 -0.68 49.66 0 50 C0 50.66 0 51.32 0 52 C7.75393973 52.02318045 15.50787132 52.04094419 23.26183701 52.05181217 C26.86239598 52.05702851 30.46293124 52.0641035 34.06347656 52.07543945 C37.53884362 52.0863127 41.01418786 52.09228626 44.48957062 52.09487724 C46.45934298 52.09762138 48.42910619 52.10542638 50.39886475 52.11329651 C51.59980774 52.11337204 52.80075073 52.11344757 54.03808594 52.11352539 C55.09509705 52.115746 56.15210815 52.11796661 57.2411499 52.12025452 C59.66717536 52.01450737 61.68609334 51.7008413 64 51 C64 52.32 64 53.64 64 55 C41.56 55 19.12 55 -4 55 C-4 46.09 -4 37.18 -4 28 C-3.34 28 -2.68 28 -2 28 C-2 21.4 -2 14.8 -2 8 C-1.67 8 -1.34 8 -1 8 C-0.67 5.36 -0.34 2.72 0 0 Z " fill="#7A67BC" transform="translate(97,404)"/>
<path d="M0 0 C-0.33 0.99 -0.66 1.98 -1 3 C-1.7206665 3.11069824 -2.44133301 3.22139648 -3.18383789 3.33544922 C-6.47745456 3.84403211 -9.76996605 4.3594561 -13.0625 4.875 C-14.19623047 5.04902344 -15.32996094 5.22304688 -16.49804688 5.40234375 C-22.14481475 6.29133928 -27.5348485 7.33669302 -33 9 C-35.9375 9.125 -35.9375 9.125 -38 9 C-37.505 10.485 -37.505 10.485 -37 12 C-40.82827892 13.91413946 -45.53956384 13.19014724 -49.75 13.1875 C-51.31476074 13.1884668 -51.31476074 13.1884668 -52.91113281 13.18945312 C-59.77829427 13.14263641 -66.23294406 12.57352471 -73.0078125 11.46875 C-83.30673605 9.85534161 -90.13589011 11.33237911 -99 17 C-101.83017765 19.18477504 -104.46502052 21.47993216 -107 24 C-107.99 23.34 -108.98 22.68 -110 22 C-90.4094924 6.54975431 -90.4094924 6.54975431 -76 8 C-73.24932593 8.45093018 -70.51607153 8.96994485 -67.77734375 9.48828125 C-58.92720275 10.68721452 -49.91951271 10.72112352 -41 11 C-41 9.68 -41 8.36 -41 7 C-40.05157227 6.823479 -39.10314453 6.64695801 -38.12597656 6.46508789 C-34.59970406 5.80844452 -31.0737338 5.15019049 -27.54785156 4.49145508 C-26.02319372 4.20683716 -24.49845479 3.92265327 -22.97363281 3.63891602 C-20.77908087 3.23047757 -18.58482743 2.82046765 -16.390625 2.41015625 C-15.7113092 2.28407486 -15.03199341 2.15799347 -14.33209229 2.02809143 C-11.7734169 1.54841525 -9.23304419 1.0594536 -6.70996094 0.41577148 C-4.45224048 -0.13318596 -2.31295377 -0.06424872 0 0 Z " fill="#2F2B3F" transform="translate(304,510)"/>
<path d="M0 0 C3.88265681 0.72799815 5.46228253 1.50231129 8 4.5625 C8.91245385 8.88673783 8.75071492 12.33132754 6.4375 16.125 C3.00082919 18.15175458 0.92582814 18.1823676 -3 17.5625 C-6.69186542 14.97033917 -7.82883761 13.52100936 -8.625 9.0625 C-7.67703424 3.75389177 -5.38444917 1.00958422 0 0 Z " fill="#F3F4F4" transform="translate(105,502.4375)"/>
<path d="M0 0 C3.125 0.375 3.125 0.375 6 1 C6 1.99 6 2.98 6 4 C4.02 3.34 2.04 2.68 0 2 C3.27851776 11.49840074 6.69479127 20.89375453 10.48046875 30.203125 C12.44545471 35.064893 14.2652826 39.98070486 16.08398438 44.89868164 C17.41319526 48.50392467 17.41319526 48.50392467 19 52 C19.08658569 54.55362604 19.11562516 57.0795442 19.09765625 59.6328125 C19.0962413 60.38464813 19.09482635 61.13648376 19.09336853 61.91110229 C19.08776465 64.3157751 19.07521157 66.72035527 19.0625 69.125 C19.0574855 70.75390491 19.0529225 72.38281127 19.04882812 74.01171875 C19.03779397 78.00784827 19.02052679 82.00390842 19 86 C18.67 86 18.34 86 18 86 C17.96036133 85.15928955 17.92072266 84.3185791 17.87988281 83.45239258 C17.72159548 80.2663134 17.54818417 77.08147958 17.36523438 73.89672852 C17.2897155 72.53082883 17.21984697 71.16460237 17.15625 69.7980957 C16.45618899 54.92726853 11.95113719 42.43066854 6.4375 28.6875 C5.47736033 26.2749402 4.51771155 23.86218498 3.55859375 21.44921875 C3.11459229 20.33224609 2.67059082 19.21527344 2.21313477 18.06445312 C-2.58136173 5.95325973 -2.58136173 5.95325973 -2 2 C-1.34 1.34 -0.68 0.68 0 0 Z " fill="#2A292E" transform="translate(78,346)"/>
<path d="M0 0 C0.66 0 1.32 0 2 0 C1.69078116 1.45903258 1.37751201 2.91720722 1.0625 4.375 C0.88847656 5.18710938 0.71445313 5.99921875 0.53515625 6.8359375 C0 9 0 9 -1 11 C-1.04022391 13.3329866 -1.04320247 15.66706666 -1 18 C0.65 18.33 2.3 18.66 4 19 C4 20.65 4 22.3 4 24 C-2.27 24 -8.54 24 -15 24 C-15 22.35 -15 20.7 -15 19 C-13.35 18.67 -11.7 18.34 -10 18 C-10.63065155 12.2190275 -11.65155132 6.6556294 -13 1 C-12.01 1.33 -11.02 1.66 -10 2 C-9.11917378 4.71318044 -8.42123771 7.28883517 -7.8125 10.0625 C-7.63525391 10.82111328 -7.45800781 11.57972656 -7.27539062 12.36132812 C-6.83863033 14.23821697 -6.41780844 16.1188016 -6 18 C-5.67 18 -5.34 18 -5 18 C-4.80664062 17.03578125 -4.61328125 16.0715625 -4.4140625 15.078125 C-4.15367188 13.81484375 -3.89328125 12.5515625 -3.625 11.25 C-3.36976562 9.99703125 -3.11453125 8.7440625 -2.8515625 7.453125 C-2.1569875 4.63659152 -1.44319917 2.48481248 0 0 Z " fill="#DCD2F3" transform="translate(127,209)"/>
<path d="M0 0 C8.49609375 -0.09765625 8.49609375 -0.09765625 11 0 C12 1 12 1 12.1328125 3.90625 C12.13023437 5.0921875 12.12765625 6.278125 12.125 7.5 C12.12757813 8.6859375 12.13015625 9.871875 12.1328125 11.09375 C12 14 12 14 11 15 C6.99779347 15.14355117 3.00558317 15.04216403 -1 15 C-0.67 10.05 -0.34 5.1 0 0 Z " fill="#F6EFFD" transform="translate(354,194)"/>
<path d="M0 0 C2.83203125 0.03255208 5.6640625 0.06510417 8.49609375 0.09765625 C8.49609375 5.04765625 8.49609375 9.99765625 8.49609375 15.09765625 C4.53609375 15.09765625 0.57609375 15.09765625 -3.50390625 15.09765625 C-3.53076037 12.78521833 -3.55023466 10.47269355 -3.56640625 8.16015625 C-3.57800781 6.87238281 -3.58960938 5.58460938 -3.6015625 4.2578125 C-3.47417331 0.13549818 -3.47417331 0.13549818 0 0 Z " fill="#F6EFFD" transform="translate(316.50390625,193.90234375)"/>
<path d="M0 0 C4.6856149 4.6856149 5.43399705 7.15732546 8 14 C2.06 14 -3.88 14 -10 14 C-8.86725664 6.07079646 -8.86725664 6.07079646 -6.125 3.0625 C-5.61195313 2.47597656 -5.09890625 1.88945312 -4.5703125 1.28515625 C-3 0 -3 0 0 0 Z " fill="#F7F0FD" transform="translate(341,176)"/>
<path d="M0 0 C0 0.99 0 1.98 0 3 C0.99 3 1.98 3 3 3 C3.21548663 6.66327268 3.19260598 9.46750111 1.9375 12.9375 C0 15 0 15 -3.5625 15.5 C-4.696875 15.335 -5.83125 15.17 -7 15 C-9.06520632 11.90219052 -9.29477024 11.0459519 -9.3125 7.5 C-9.32925781 6.7265625 -9.34601563 5.953125 -9.36328125 5.15625 C-8.44538699 -0.29189657 -4.8300957 -0.32200638 0 0 Z " fill="#EEEBF3" transform="translate(132,362)"/>
<path d="M0 0 C0.78375 0.04125 1.5675 0.0825 2.375 0.125 C5.03964729 5.34770869 5.70354177 8.2069503 4.375 14.125 C1.79241077 11.54241077 1.64512534 9.39624388 0.9375 5.90234375 C0.751875 5.31582031 0.56625 4.72929687 0.375 4.125 C-0.285 3.795 -0.945 3.465 -1.625 3.125 C-1.94141558 13.67218587 -1.72114346 22.93820677 1.375 33.125 C1.72688897 34.78784787 2.06593757 36.45366242 2.375 38.125 C1.715 38.125 1.055 38.125 0.375 38.125 C-0.92435464 35.60787811 -2.21454372 33.08670913 -3.5 30.5625 C-3.86480469 29.85802734 -4.22960937 29.15355469 -4.60546875 28.42773438 C-6.82442197 24.05034485 -8.43566956 19.88858139 -9.625 15.125 C-8.965 15.125 -8.305 15.125 -7.625 15.125 C-6.965 16.445 -6.305 17.765 -5.625 19.125 C-5.57601562 17.92101562 -5.52703125 16.71703125 -5.4765625 15.4765625 C-5.40153657 13.90101802 -5.32598867 12.32549834 -5.25 10.75 C-5.2190625 9.9559375 -5.188125 9.161875 -5.15625 8.34375 C-4.74347694 0.22587985 -4.74347694 0.22587985 0 0 Z " fill="#403F43" transform="translate(93.625,331.875)"/>
<path d="M0 0 C6.27 0 12.54 0 19 0 C19 1.98 19 3.96 19 6 C15.95823289 8.752075 13.88167282 9.87898608 9.8125 10.4375 C6.6304788 9.94251892 6.01658024 9.3832312 4 7 C1.90010348 5.82425289 1.90010348 5.82425289 0 5 C0 3.35 0 1.7 0 0 Z " fill="#D7CEF1" transform="translate(112,235)"/>
<path d="M0 0 C-0.99 3.3 -1.98 6.6 -3 10 C3.27 10 9.54 10 16 10 C16 10.99 16 11.98 16 13 C9.07 13 2.14 13 -5 13 C-5 16.3 -5 19.6 -5 23 C-5.99 22.67 -6.98 22.34 -8 22 C-8 19.03 -8 16.06 -8 13 C-10.64 13 -13.28 13 -16 13 C-16 12.01 -16 11.02 -16 10 C-11.545 9.505 -11.545 9.505 -7 9 C-6.731875 8.071875 -6.46375 7.14375 -6.1875 6.1875 C-3.88235294 0 -3.88235294 0 0 0 Z " fill="#D5CCED" transform="translate(333,181)"/>
<path d="M0 0 C5.28 0 10.56 0 16 0 C15.09353725 4.53231376 14.45887001 6.21820658 11.9375 9.8125 C11.11572266 10.99779297 11.11572266 10.99779297 10.27734375 12.20703125 C9.85582031 12.79871094 9.43429687 13.39039063 9 14 C5.37640811 12.56759722 4.06444274 10.97298034 2.25 7.5625 C1.82203125 6.78003906 1.3940625 5.99757812 0.953125 5.19140625 C0 3 0 3 0 0 Z " fill="#F6EFFD" transform="translate(331,213)"/>
<path d="M0 0 C0.66 0.33 1.32 0.66 2 1 C2.625 3.5625 2.625 3.5625 3 6 C2.38253906 6.3403125 1.76507813 6.680625 1.12890625 7.03125 C-5.28720886 10.70318194 -10.65044914 14.90888155 -16 20 C-16.99 18.68 -17.98 17.36 -19 16 C-15.72575531 8.48075466 -7.45624295 2.97012167 0 0 Z " fill="#EDEDED" transform="translate(214,521)"/>
<path d="M0 0 C4.75 0.75 4.75 0.75 7 3 C7.22705078 5.88916016 7.22705078 5.88916016 7.1953125 9.5390625 C7.18886719 10.84101563 7.18242188 12.14296875 7.17578125 13.484375 C7.15906929 14.86458595 7.14213939 16.24479429 7.125 17.625 C7.11497006 19.01301452 7.10584423 20.40103589 7.09765625 21.7890625 C7.07401863 25.19288026 7.04106867 28.59635506 7 32 C6.67 32 6.34 32 6 32 C5.97494385 31.26885986 5.9498877 30.53771973 5.92407227 29.78442383 C5.80777359 26.46028583 5.68520072 23.13640759 5.5625 19.8125 C5.52318359 18.66201172 5.48386719 17.51152344 5.44335938 16.32617188 C5.38051758 14.65844727 5.38051758 14.65844727 5.31640625 12.95703125 C5.27974854 11.93585205 5.24309082 10.91467285 5.20532227 9.86254883 C5.01159937 7.16171537 4.59548047 4.63833872 4 2 C3.01 2.33 2.02 2.66 1 3 C-1.94164895 11.00782214 -2.16680545 19.55419165 -2.5625 28 C-2.60568359 28.87011719 -2.64886719 29.74023438 -2.69335938 30.63671875 C-2.79824218 32.75768219 -2.89950075 34.87882433 -3 37 C-3.66 37 -4.32 37 -5 37 C-5.50904657 35.12743583 -6.00682455 33.25180659 -6.5 31.375 C-6.7784375 30.33085937 -7.056875 29.28671875 -7.34375 28.2109375 C-7.99118596 25.04312582 -8.1161292 22.22258533 -8 19 C-7.34 19.66 -6.68 20.32 -6 21 C-5.81824219 19.98679687 -5.63648437 18.97359375 -5.44921875 17.9296875 C-5.19578418 16.57803647 -4.94185135 15.22647881 -4.6875 13.875 C-4.51057617 12.87726563 -4.51057617 12.87726563 -4.33007812 11.859375 C-3.49295526 7.48057846 -2.16361303 3.89086713 0 0 Z " fill="#242327" transform="translate(106,324)"/>
<path d="M0 0 C3.96 0 7.92 0 12 0 C13.00484204 1.95585325 14.00373805 3.91476237 15 5.875 C15.556875 6.96554688 16.11375 8.05609375 16.6875 9.1796875 C18 12 18 12 18 14 C10.24852428 13.26176422 5.95084 9.28073005 1.1015625 3.5859375 C0 2 0 2 0 0 Z " fill="#F5EEFC" transform="translate(315,213)"/>
<path d="M0 0 C0.33 0 0.66 0 1 0 C1.33 8.25 1.66 16.5 2 25 C4.97 22.525 4.97 22.525 8 20 C11.98218386 18.66439892 16.02791633 18.36010188 20.05859375 19.66796875 C23.93984322 21.71292815 26.52404677 24.43462735 29 28 C28.67 28.66 28.34 29.32 28 30 C27.34 30 26.68 30 26 30 C25.38125 29.05125 24.7625 28.1025 24.125 27.125 C21.74275404 23.5340265 21.74275404 23.5340265 18 22 C12.26918131 21.36324237 9.47174328 22.42260538 5 26 C4.278125 26.7425 3.55625 27.485 2.8125 28.25 C1 30 1 30 -2 30 C-2.04939662 26.04903022 -2.08571755 22.0981797 -2.10986328 18.14697266 C-2.12488107 16.1408864 -2.15028981 14.13488676 -2.17578125 12.12890625 C-2.18544922 10.24365234 -2.18544922 10.24365234 -2.1953125 8.3203125 C-2.20578613 7.15773926 -2.21625977 5.99516602 -2.22705078 4.79736328 C-2 2 -2 2 0 0 Z " fill="#616064" transform="translate(113,329)"/>
<path d="M0 0 C5.49482906 2.42418929 8.33686523 6.80814735 11 12 C11.93546863 14.94595092 12.05373795 16.82946123 12 20 C10.5625 22.5 10.5625 22.5 9 24 C8.67 22.02 8.34 20.04 8 18 C4.04 17.67 0.08 17.34 -4 17 C-4.33 18.65 -4.66 20.3 -5 22 C-5.33 22 -5.66 22 -6 22 C-6.33 20.02 -6.66 18.04 -7 16 C-3.57905758 13.71937172 -2.31812778 13.78074993 1.6875 13.875 C3.17830078 13.90207031 3.17830078 13.90207031 4.69921875 13.9296875 C5.45847656 13.95289063 6.21773438 13.97609375 7 14 C6.23587913 12.87043002 5.46340197 11.74651022 4.6875 10.625 C4.25824219 9.99851563 3.82898438 9.37203125 3.38671875 8.7265625 C1.93079661 6.73621155 1.93079661 6.73621155 -1 5 C-0.67 3.35 -0.34 1.7 0 0 Z " fill="#D7CDEF" transform="translate(357,177)"/>
<path d="M0 0 C3.3 0 6.6 0 10 0 C10.33 0.66 10.66 1.32 11 2 C39.05 2 67.1 2 96 2 C93.34553943 4.65446057 91.39597631 4.23633457 87.78579712 4.24884033 C86.91401825 4.24164978 86.04223938 4.23445923 85.14404297 4.22705078 C84.22691528 4.22734283 83.3097876 4.22763489 82.36486816 4.22793579 C79.32387941 4.22653893 76.28313362 4.21096101 73.2421875 4.1953125 C71.13754409 4.19158364 69.03289894 4.18873607 66.92825317 4.18673706 C61.38140086 4.17909064 55.83465283 4.1594335 50.2878418 4.1373291 C44.63071097 4.11689237 38.97356333 4.10774 33.31640625 4.09765625 C22.21089161 4.07618856 11.10545447 4.04204048 0 4 C0 2.68 0 1.36 0 0 Z " fill="#7763BA" transform="translate(259,552)"/>
<path d="M0 0 C3.96 0 7.92 0 12 0 C9.78671258 6.04965227 5.60415445 9.8798956 0 13 C-2.31 13.33 -4.62 13.66 -7 14 C-4.69 9.38 -2.38 4.76 0 0 Z " fill="#F6EFFD" transform="translate(351,213)"/>
<path d="M0 0 C0.2475 0.639375 0.495 1.27875 0.75 1.9375 C1.81562433 4.18741541 1.81562433 4.18741541 4.125 4.75 C4.74375 4.8325 5.3625 4.915 6 5 C4.02 5.33 2.04 5.66 0 6 C0 5.01 0 4.02 0 3 C-4.33229715 3.8604139 -4.33229715 3.8604139 -8 6 C-8.09823996 7.47648876 -8.12973519 8.95775417 -8.125 10.4375 C-8.12757812 11.24058594 -8.13015625 12.04367187 -8.1328125 12.87109375 C-8.13578326 15.05397931 -8.13578326 15.05397931 -7 17 C-4.69 17 -2.38 17 0 17 C2.12046792 13.46588679 2.53199289 10.05606165 3 6 C5 9 5 9 4.8984375 11.15625 C3.50218129 17.40814348 3.50218129 17.40814348 1.25 20.0625 C-1.89895067 21.37456278 -3.62129225 21.68953219 -7 21 C-10.42549717 17.96803253 -11.8545312 14.92130241 -12.5625 10.4375 C-11.89977018 6.38748444 -10.56686332 4.17083116 -8 1 C-5.29120665 -0.35439668 -2.99066732 -0.06501451 0 0 Z " fill="#454448" transform="translate(132,359)"/>
<path d="M0 0 C2.60623142 0.35219343 4.60789115 0.76473469 6.875 2.125 C8.73151612 5.21919354 7.83179902 7.61338972 7 11 C5.75 13.4375 5.75 13.4375 4 15 C1.375 15.3125 1.375 15.3125 -1 15 C-2.72973114 13.27026886 -2.17208117 10.97483037 -2.1875 8.625 C-2.20167969 7.64789063 -2.21585937 6.67078125 -2.23046875 5.6640625 C-2 3 -2 3 0 0 Z " fill="#333337" transform="translate(262,296)"/>
<path d="M0 0 C0.99 0.33 1.98 0.66 3 1 C1.54974765 4.36638887 -0.29486453 6.48039225 -2.9375 9 C-5.0293436 11.00191387 -6.90250076 12.86573097 -8.60546875 15.2109375 C-10 17 -10 17 -12.375 17.625 C-16.36899316 16.67404925 -17.7380306 14.29601255 -20 11 C-20 10.01 -20 9.02 -20 8 C-17.5625 8.375 -17.5625 8.375 -15 9 C-14.67 9.66 -14.34 10.32 -14 11 C-13.01 11.33 -12.02 11.66 -11 12 C-10.773125 11.443125 -10.54625 10.88625 -10.3125 10.3125 C-8.62449964 7.33840412 -6.53323483 5.27991135 -4 3 C-3.34 3 -2.68 3 -2 3 C-2 2.34 -2 1.68 -2 1 C-1.34 0.67 -0.68 0.34 0 0 Z " fill="#F4EEFD" transform="translate(385,366)"/>
<path d="M0 0 C-0.33 0.99 -0.66 1.98 -1 3 C-1.7206665 3.11069824 -2.44133301 3.22139648 -3.18383789 3.33544922 C-6.47745456 3.84403211 -9.76996605 4.3594561 -13.0625 4.875 C-14.7630957 5.13603516 -14.7630957 5.13603516 -16.49804688 5.40234375 C-22.14481475 6.29133928 -27.5348485 7.33669302 -33 9 C-35.9375 9.125 -35.9375 9.125 -38 9 C-37.67 9.99 -37.34 10.98 -37 12 C-39.87530081 12.9584336 -41.29049931 13.06656387 -44.23046875 12.87890625 C-45.03291016 12.83056641 -45.83535156 12.78222656 -46.66210938 12.73242188 C-47.91217773 12.64831055 -47.91217773 12.64831055 -49.1875 12.5625 C-50.03248047 12.51029297 -50.87746094 12.45808594 -51.74804688 12.40429688 C-53.83236299 12.27476311 -55.91623182 12.13806823 -58 12 C-58 11.67 -58 11.34 -58 11 C-52.39 11 -46.78 11 -41 11 C-41 9.68 -41 8.36 -41 7 C-40.05157227 6.823479 -39.10314453 6.64695801 -38.12597656 6.46508789 C-34.59970406 5.80844452 -31.0737338 5.15019049 -27.54785156 4.49145508 C-26.02319372 4.20683716 -24.49845479 3.92265327 -22.97363281 3.63891602 C-20.77908087 3.23047757 -18.58482743 2.82046765 -16.390625 2.41015625 C-15.7113092 2.28407486 -15.03199341 2.15799347 -14.33209229 2.02809143 C-11.7734169 1.54841525 -9.23304419 1.0594536 -6.70996094 0.41577148 C-4.45224048 -0.13318596 -2.31295377 -0.06424872 0 0 Z " fill="#372C5B" transform="translate(304,510)"/>
<path d="M0 0 C7.57105178 1.57730245 13.70472215 5.45102699 18 12 C18 12.66 18 13.32 18 14 C14.37 14 10.74 14 7 14 C6.401875 12.618125 5.80375 11.23625 5.1875 9.8125 C3.66730232 6.3825878 2.03820567 3.15921879 0 0 Z " fill="#F6EFFD" transform="translate(345,176)"/>
<path d="M0 0 C-0.34933594 0.44730469 -0.69867188 0.89460937 -1.05859375 1.35546875 C-1.51363281 1.96003906 -1.96867187 2.56460938 -2.4375 3.1875 C-2.88996094 3.77917969 -3.34242188 4.37085938 -3.80859375 4.98046875 C-5.35517072 7.34875038 -5.35517072 7.34875038 -6 12 C-9.63 12 -13.26 12 -17 12 C-15.05725795 7.14314487 -14.4771898 6.15548406 -10.5625 3.25 C-9.78003906 2.65703125 -8.99757813 2.0640625 -8.19140625 1.453125 C-4.98851563 -0.67071691 -3.7166918 -1.23889727 0 0 Z " fill="#F5EEFD" transform="translate(333,178)"/>
<path d="M0 0 C4.82215279 1.99537357 6.70031651 5.0166902 8.6875 9.6875 C10.87106833 15.94783688 11.00307084 21.46359674 8.125 27.5 C6.34146341 30.82926829 6.34146341 30.82926829 4 32 C4 31.34 4 30.68 4 30 C3.38511719 30.02320313 2.77023437 30.04640625 2.13671875 30.0703125 C0.92435547 30.09738281 0.92435547 30.09738281 -0.3125 30.125 C-1.51326172 30.15980469 -1.51326172 30.15980469 -2.73828125 30.1953125 C-5 30 -5 30 -8 28 C-3.38 27.67 1.24 27.34 6 27 C6.45449691 17.00106787 6.53943885 10.62699494 1 2 C0.67 1.34 0.34 0.68 0 0 Z " fill="#2C2937" transform="translate(265,522)"/>
<path d="M0 0 C0.66 0 1.32 0 2 0 C2.26305952 8.2425317 1.60614551 15.91191011 0 24 C1.98 24 3.96 24 6 24 C6 24.99 6 25.98 6 27 C2.625 27.125 2.625 27.125 -1 27 C-3 25 -3 25 -3.3125 21.375 C-3.1820906 14.15506133 -1.4526689 7.04717352 0 0 Z " fill="#474649" transform="translate(202,295)"/>
<path d="M0 0 C0.66 0 1.32 0 2 0 C3.45207288 4.09010018 4.89429443 8.18349775 6.32739258 12.28027344 C6.81654262 13.67413175 7.30839625 15.06704431 7.80297852 16.45898438 C8.51246688 18.45722243 9.21223702 20.45863411 9.91015625 22.4609375 C10.33433838 23.66540527 10.75852051 24.86987305 11.19555664 26.11083984 C12 29 12 29 11 31 C10.34 30.67 9.68 30.34 9 30 C8.67 31.32 8.34 32.64 8 34 C7.89187988 33.40501709 7.78375977 32.81003418 7.67236328 32.19702148 C6.4378864 25.69295828 4.7643077 19.40388444 2.875 13.0625 C2.32705268 11.22114213 1.78261563 9.37873497 1.2421875 7.53515625 C1.0035498 6.734729 0.76491211 5.93430176 0.51904297 5.10961914 C0 3 0 3 0 0 Z " fill="#2D2448" transform="translate(303,440)"/>
<path d="M0 0 C-2.25238827 2.5149366 -3.24368998 3.08403103 -6.625 4.25 C-14.38124301 6.95466777 -21.48046865 13.22070297 -26 20 C-27.5625 18.1875 -27.5625 18.1875 -29 16 C-28.67 15.01 -28.34 14.02 -28 13 C-26.68 13 -25.36 13 -24 13 C-21.86572114 11.42121083 -21.86572114 11.42121083 -19.8125 9.3125 C-14.11391879 4.03568878 -8.20082666 -1.05138803 0 0 Z " fill="#363739" transform="translate(223,526)"/>
<path d="M0 0 C3.125 0.375 3.125 0.375 6 1 C6 1.99 6 2.98 6 4 C4.02 3.34 2.04 2.68 0 2 C0.9570262 4.72963132 1.91557346 7.45871242 2.875 10.1875 C3.14441406 10.95642578 3.41382812 11.72535156 3.69140625 12.51757812 C3.95566406 13.26845703 4.21992187 14.01933594 4.4921875 14.79296875 C4.74838867 15.52435059 5.00458984 16.25573242 5.26855469 17.00927734 C5.86497703 18.63251758 6.54934058 20.2232211 7.2578125 21.80078125 C8.10648255 24.31552462 7.91002143 25.54294214 7 28 C-2.87498014 9.34725973 -2.87498014 9.34725973 -2 2 C-1.34 1.34 -0.68 0.68 0 0 Z " fill="#36343A" transform="translate(78,346)"/>
<path d="M0 0 C-1.39873804 4.61338162 -3.59507 6.75191031 -7.3125 9.75 C-8.25738281 10.52859375 -9.20226562 11.3071875 -10.17578125 12.109375 C-12.98160701 13.98768712 -14.70504717 14.58054202 -18 15 C-18.99 15.33 -19.98 15.66 -21 16 C-21 15.34 -21 14.68 -21 14 C-21.66 13.67 -22.32 13.34 -23 13 C-22.45472656 12.78085937 -21.90945312 12.56171875 -21.34765625 12.3359375 C-14.8899617 9.62039415 -8.30266815 6.40538271 -3.3671875 1.31640625 C-2 0 -2 0 0 0 Z " fill="#38383A" transform="translate(245,336)"/>
<path d="M0 0 C0.66 0 1.32 0 2 0 C1.23945318 9.43078051 -0.38671563 18.68556572 -2 28 C-2.99 28 -3.98 28 -5 28 C-4.49022248 21.57680327 -3.60502458 15.28091324 -2.5 8.9375 C-2.36940186 8.1751001 -2.23880371 7.4127002 -2.10424805 6.62719727 C-1.12297066 1.12297066 -1.12297066 1.12297066 0 0 Z " fill="#322854" transform="translate(166,431)"/>
<path d="M0 0 C2 2 2 2 2 4.875 C1.06161355 10.41148008 -2.00555353 18.00555353 -6 22 C-6.23481693 24.18292774 -6.41363323 26.37203174 -6.5625 28.5625 C-6.64628906 29.76003906 -6.73007812 30.95757813 -6.81640625 32.19140625 C-6.87699219 33.11824219 -6.93757813 34.04507813 -7 35 C-7.33 35 -7.66 35 -8 35 C-8 29.39 -8 23.78 -8 18 C-7.34 17.67 -6.68 17.34 -6 17 C-3.34766544 11.59172406 -1.51744029 5.81685446 0 0 Z " fill="#DBD2EF" transform="translate(384,495)"/>
<path d="M0 0 C4.29238623 1.65091778 6.8793915 4.73754566 10 8 C13.74366186 6.56013005 15.9693114 4.12649698 18.6328125 1.2421875 C20 0 20 0 22 0 C20.52278578 3.45201639 18.56205999 5.64961936 15.875 8.25 C15.15054688 8.95640625 14.42609375 9.6628125 13.6796875 10.390625 C13.12539062 10.92171875 12.57109375 11.4528125 12 12 C8.60140297 10.53033642 6.35036291 8.61962486 3.75 6 C3.04359375 5.29875 2.3371875 4.5975 1.609375 3.875 C0 2 0 2 0 0 Z " fill="#F3E9FD" transform="translate(60,282)"/>
<path d="M0 0 C0 0.66 0 1.32 0 2 C-1.30324219 2.47179687 -1.30324219 2.47179687 -2.6328125 2.953125 C-13.31880389 6.86311427 -13.31880389 6.86311427 -22 14 C-22.99 13.67 -23.98 13.34 -25 13 C-18.48228746 6.52062694 -9.67745887 -0.72536712 0 0 Z " fill="#3D3D3E" transform="translate(231,533)"/>
<path d="M0 0 C3.3 0 6.6 0 10 0 C10.33 0.66 10.66 1.32 11 2 C16.61 2.33 22.22 2.66 28 3 C28 3.33 28 3.66 28 4 C18.76 4 9.52 4 0 4 C0 2.68 0 1.36 0 0 Z " fill="#7767AF" transform="translate(259,552)"/>
<path d="M0 0 C0.33 0.99 0.66 1.98 1 3 C6.94 2.505 6.94 2.505 13 2 C13 2.66 13 3.32 13 4 C11.02 4.33 9.04 4.66 7 5 C7 5.33 7 5.66 7 6 C2.545 6.495 2.545 6.495 -2 7 C-2 6.01 -2 5.02 -2 4 C-8.27 4 -14.54 4 -21 4 C-20.67 3.01 -20.34 2.02 -20 1 C-20 1.66 -20 2.32 -20 3 C-13.73 2.67 -7.46 2.34 -1 2 C-0.67 1.34 -0.34 0.68 0 0 Z " fill="#E1D8F4" transform="translate(351,187)"/>
<path d="M0 0 C0.99 0.33 1.98 0.66 3 1 C2 4 2 4 -0.29296875 5.23828125 C-3.92797521 7.60392037 -5.32040314 10.41877027 -7.3125 14.1875 C-7.85100586 15.16879883 -7.85100586 15.16879883 -8.40039062 16.16992188 C-9.27838643 17.77372755 -10.14079104 19.38605166 -11 21 C-11.66 21 -12.32 21 -13 21 C-11.63853459 16.11648276 -9.43299008 12.32620028 -6.5 8.25 C-6.09652344 7.67378906 -5.69304687 7.09757812 -5.27734375 6.50390625 C-3.63179199 4.17406564 -2.02036742 2.02036742 0 0 Z " fill="#7E64D2" transform="translate(160,391)"/>
<path d="M0 0 C-0.1875 1.875 -0.1875 1.875 -1 4 C-4.63754199 5.85760596 -7.63556769 6.24830662 -11.6875 6.1875 C-13.11642578 6.17783203 -13.11642578 6.17783203 -14.57421875 6.16796875 C-17 6 -17 6 -19 5 C-19 4.34 -19 3.68 -19 3 C-18.26394531 3.03480469 -17.52789062 3.06960938 -16.76953125 3.10546875 C-10.31353283 3.28456514 -5.67729045 0 0 0 Z " fill="#1F1F22" transform="translate(223,325)"/>
<path d="M0 0 C0 1.32 0 2.64 0 4 C-3.87684087 5.19287411 -6.91621923 6 -11 6 C-11 5.34 -11 4.68 -11 4 C-10.34 3.67 -9.68 3.34 -9 3 C-9.33 2.34 -9.66 1.68 -10 1 C-6.78548731 -0.60725635 -3.56387464 -0.05748185 0 0 Z " fill="#EBE6F5" transform="translate(209,367)"/>
<path d="M0 0 C3.66328593 2.44219062 4.45771534 3.88724091 6 8 C6.24002649 11.35036975 6.17887602 14.64773088 6 18 C5.67 18 5.34 18 5 18 C4.34 15.03 3.68 12.06 3 9 C0.60280568 8.32041397 0.60280568 8.32041397 -2 8 C-2.66 8.66 -3.32 9.32 -4 10 C-4 9.01 -4 8.02 -4 7 C-4.99 6.67 -5.98 6.34 -7 6 C-4.36 5.67 -1.72 5.34 1 5 C0.67 3.35 0.34 1.7 0 0 Z " fill="#28272B" transform="translate(140,358)"/>
<path d="M0 0 C0.33 0 0.66 0 1 0 C3.01281004 9.29552273 0.83107984 14.97620653 -4 23 C-4.66 22.67 -5.32 22.34 -6 22 C-4.97767269 18.77573695 -3.88261884 15.75115194 -2.4375 12.6875 C-0.77277841 8.41712723 -0.29856805 4.54029349 0 0 Z " fill="#47454A" transform="translate(144,369)"/>
<path d="M0 0 C0 0.66 0 1.32 0 2 C-0.8971875 2.433125 -0.8971875 2.433125 -1.8125 2.875 C-4.19327792 4.04742026 -4.19327792 4.04742026 -7 6 C-10.35546875 5.7578125 -10.35546875 5.7578125 -14.1875 5.125 C-15.45980469 4.92132813 -16.73210937 4.71765625 -18.04296875 4.5078125 C-19.01878906 4.34023438 -19.99460937 4.17265625 -21 4 C-21 3.67 -21 3.34 -21 3 C-17.87539701 2.49749755 -14.75025588 1.99842443 -11.625 1.5 C-10.29082031 1.28537109 -10.29082031 1.28537109 -8.9296875 1.06640625 C-8.07890625 0.93105469 -7.228125 0.79570312 -6.3515625 0.65625 C-5.56604004 0.53056641 -4.78051758 0.40488281 -3.97119141 0.27539062 C-2 0 -2 0 0 0 Z " fill="#DAD5E4" transform="translate(301,365)"/>
<path d="M0 0 C2.375 -0.125 2.375 -0.125 5 0 C5.66 0.66 6.32 1.32 7 2 C6.625 4.125 6.625 4.125 6 6 C3.625 6.625 3.625 6.625 1 7 C0.34 6.34 -0.32 5.68 -1 5 C-0.625 2.375 -0.625 2.375 0 0 Z " fill="#DCD3F0" transform="translate(64,226)"/>
<path d="M0 0 C0.66 0 1.32 0 2 0 C2.3690205 12.66970387 2.3690205 12.66970387 0 18 C-0.66 18 -1.32 18 -2 18 C-1.85805236 15.93722893 -1.71127784 13.87478969 -1.5625 11.8125 C-1.48128906 10.66394531 -1.40007812 9.51539063 -1.31640625 8.33203125 C-1.04596188 5.48401829 -0.62478253 2.78789518 0 0 Z " fill="#2D2C2F" transform="translate(202,295)"/>
<path d="M0 0 C1.74991334 -0.02715383 3.49994945 -0.04646551 5.25 -0.0625 C6.71179688 -0.07990234 6.71179688 -0.07990234 8.203125 -0.09765625 C10.65758678 -0.01195577 12.66168914 0.29293934 15 1 C15 1.99 15 2.98 15 4 C10.05 3.67 5.1 3.34 0 3 C0 2.01 0 1.02 0 0 Z " fill="#232426" transform="translate(218,283)"/>
<path d="M0 0 C2 1 2 1 2.86962891 3.00952148 C3.29381104 4.30224976 3.29381104 4.30224976 3.7265625 5.62109375 C4.0359375 6.55630859 4.3453125 7.49152344 4.6640625 8.45507812 C4.98117187 9.43927734 5.29828125 10.42347656 5.625 11.4375 C5.94984375 12.41783203 6.2746875 13.39816406 6.609375 14.40820312 C9 21.70563616 9 21.70563616 9 24 C8.34 24 7.68 24 7 24 C6.74605469 23.10796875 6.49210937 22.2159375 6.23046875 21.296875 C5.88628906 20.12640625 5.54210937 18.9559375 5.1875 17.75 C4.85105469 16.58984375 4.51460938 15.4296875 4.16796875 14.234375 C3.08629892 11.23898162 1.88983554 9.49114685 0 7 C-0.1875 3.25 -0.1875 3.25 0 0 Z " fill="#8068D0" transform="translate(348,421)"/>
<path d="M0 0 C3 1 3 1 4.1328125 2.63671875 C6.13103025 6.76689322 7.53708186 10.37081861 8 15 C7.01 15 6.02 15 5 15 C3.33333333 10 1.66666667 5 0 0 Z " fill="#4B4B4B" transform="translate(114,389)"/>
<path d="M0 0 C1.67542976 0.28604898 3.34385343 0.61781233 5 1 C6.125 4.75 6.125 4.75 5 7 C3.35 7 1.7 7 0 7 C-0.38133299 5.0085944 -0.71325582 3.00720923 -1 1 C-0.67 0.67 -0.34 0.34 0 0 Z " fill="#DBD2F0" transform="translate(398,223)"/>
<path d="M0 0 C0 0.99 0 1.98 0 3 C-6.6 3.66 -13.2 4.32 -20 5 C-18 3 -18 3 -15.8359375 2.8046875 C-14.61777344 2.83949219 -14.61777344 2.83949219 -13.375 2.875 C-12.14910156 2.90207031 -12.14910156 2.90207031 -10.8984375 2.9296875 C-9.95871094 2.96449219 -9.95871094 2.96449219 -9 3 C-9 2.34 -9 1.68 -9 1 C-6.04335481 -0.4783226 -3.25770263 -0.06032783 0 0 Z " fill="#3C3164" transform="translate(347,503)"/>
<path d="M0 0 C1.2065625 0.0309375 1.2065625 0.0309375 2.4375 0.0625 C2.4375 2.0425 2.4375 4.0225 2.4375 6.0625 C0.78135343 6.44468767 -0.88707024 6.77645102 -2.5625 7.0625 C-3.5625 6.0625 -3.5625 6.0625 -3.6875 3.5625 C-3.51717518 0.15600356 -3.41884482 0.08338646 0 0 Z " fill="#444444" transform="translate(224.5625,295.9375)"/>
<path d="M0 0 C2.75177354 1.66584638 3.86650557 2.65580355 5.046875 5.69921875 C5.27890625 6.68535156 5.5109375 7.67148437 5.75 8.6875 C5.99234375 9.68136719 6.2346875 10.67523438 6.484375 11.69921875 C6.73960937 12.83810547 6.73960937 12.83810547 7 14 C6.01 13.67 5.02 13.34 4 13 C3.67 14.32 3.34 15.64 3 17 C1.82877141 11.34853777 0.74660712 5.72398793 0 0 Z " fill="#362C57" transform="translate(308,457)"/>
<path d="M0 0 C0.99 0.33 1.98 0.66 3 1 C3.94921875 3.546875 3.94921875 3.546875 4.6875 6.75 C4.93886719 7.79671875 5.19023438 8.8434375 5.44921875 9.921875 C5.94681633 12.70277496 6.10945568 15.18542538 6 18 C5.34 18 4.68 18 4 18 C2.68 12.06 1.36 6.12 0 0 Z " fill="#F4EBFC" transform="translate(114,210)"/>
<path d="M0 0 C0.66 0 1.32 0 2 0 C0.64746536 6.45054982 -1.03060233 12.71105679 -3 19 C-3.33 19 -3.66 19 -4 19 C-3.66944259 12.05829437 -3.24571282 6.20918975 0 0 Z " fill="#F3EAFC" transform="translate(127,209)"/>
<path d="M0 0 C0.66 0 1.32 0 2 0 C1.34 4.95 0.68 9.9 0 15 C-1.32 14.67 -2.64 14.34 -4 14 C-3.34 14 -2.68 14 -2 14 C-2 12.35 -2 10.7 -2 9 C-2.99 8.67 -3.98 8.34 -5 8 C-5 7.34 -5 6.68 -5 6 C-2.525 6.495 -2.525 6.495 0 7 C0 4.69 0 2.38 0 0 Z " fill="#755CC8" transform="translate(305,495)"/>
<path d="M0 0 C2.0625 0.4375 2.0625 0.4375 4 1 C4 2.98 4 4.96 4 7 C2.0625 7.5625 2.0625 7.5625 0 8 C-1 7 -1 7 -1.125 4 C-1 1 -1 1 0 0 Z " fill="#303030" transform="translate(190,295)"/>
<path d="M0 0 C-1.4333056 5.01656959 -3.90563952 7.01452882 -8 10 C-8.66 10 -9.32 10 -10 10 C-9.43867066 6.4628562 -8.30442253 5.00738321 -5.5625 2.75 C-4.94503906 2.22921875 -4.32757813 1.7084375 -3.69140625 1.171875 C-2 0 -2 0 0 0 Z " fill="#302F31" transform="translate(245,336)"/>
<path d="M0 0 C0.33 0 0.66 0 1 0 C1.144375 1.0725 1.28875 2.145 1.4375 3.25 C1.85041003 6.71377432 1.85041003 6.71377432 2.59375 8.8125 C3.17476208 11.9410266 2.59367892 14.62541814 2.0625 17.75 C1.86785156 18.92046875 1.67320312 20.0909375 1.47265625 21.296875 C1.31667969 22.18890625 1.16070312 23.0809375 1 24 C0.67 24 0.34 24 0 24 C-1.21521251 15.88611956 -0.76299944 8.14648632 0 0 Z " fill="#E7DEF7" transform="translate(389,443)"/>
<path d="M0 0 C0.66 0 1.32 0 2 0 C1.45276317 3.37462715 0.9451 5.08235 -1 8 C-1.4603764 11.19806665 -1.4603764 11.19806665 -1.625 14.6875 C-1.69976562 15.86699219 -1.77453125 17.04648437 -1.8515625 18.26171875 C-1.92503906 19.61716797 -1.92503906 19.61716797 -2 21 C-2.33 21 -2.66 21 -3 21 C-3 15.39 -3 9.78 -3 4 C-2.34 3.67 -1.68 3.34 -1 3 C-0.67 2.01 -0.34 1.02 0 0 Z " fill="#C7BAE7" transform="translate(379,509)"/>
<path d="M0 0 C1.65 0 3.3 0 5 0 C7.66464729 5.22270869 8.32854177 8.0819503 7 14 C4.41073669 11.41073669 4.62601957 9.97294721 4.375 6.375 C4.30023438 5.37210937 4.22546875 4.36921875 4.1484375 3.3359375 C4.09945312 2.56507813 4.05046875 1.79421875 4 1 C2.68 0.67 1.36 0.34 0 0 Z " fill="#5C5A5F" transform="translate(91,332)"/>
<path d="M0 0 C-2.174108 2.43990804 -3.97833646 3.57580792 -7.0625 4.625 C-9.12612616 5.33977554 -11.04484255 6.02242128 -13 7 C-13.66 6.34 -14.32 5.68 -15 5 C-5.77448747 -0.74031891 -5.77448747 -0.74031891 0 0 Z " fill="#3D3D3E" transform="translate(223,526)"/>
<path d="M0 0 C2.46301423 2.46301423 2.76766521 4.27360036 3.625 7.625 C3.88539062 8.62789063 4.14578125 9.63078125 4.4140625 10.6640625 C4.60742188 11.43492187 4.80078125 12.20578125 5 13 C4.34 13.66 3.68 14.32 3 15 C2.29911844 13.25531628 1.61475991 11.50398839 0.9375 9.75 C0.55464844 8.77546875 0.17179687 7.8009375 -0.22265625 6.796875 C-1.01113787 3.95992605 -1.02437812 2.70590448 0 0 Z " fill="#4A4A4D" transform="translate(86,372)"/>
<path d="M0 0 C6.75 -0.125 6.75 -0.125 9 1 C9 1.99 9 2.98 9 4 C5.7 4 2.4 4 -1 4 C-0.67 2.68 -0.34 1.36 0 0 Z " fill="#3B3B3B" transform="translate(187,284)"/>
<path d="M0 0 C3.40636923 1.4095321 5.23944644 2.73040054 7 6 C7.53709412 8.99016821 7.81220596 11.96939277 8 15 C6.23613018 12.35419527 4.84097296 9.78215116 3.4375 6.9375 C3.00308594 6.05964844 2.56867188 5.18179688 2.12109375 4.27734375 C1.75113281 3.52582031 1.38117188 2.77429688 1 2 C0.67 1.34 0.34 0.68 0 0 Z " fill="#2A233B" transform="translate(265,522)"/>
<path d="M0 0 C3.125 0.375 3.125 0.375 6 1 C6 1.99 6 2.98 6 4 C4.02 3.34 2.04 2.68 0 2 C0.33 3.98 0.66 5.96 1 8 C0.01 8.495 0.01 8.495 -1 9 C-1.625 5.625 -1.625 5.625 -2 2 C-1.34 1.34 -0.68 0.68 0 0 Z " fill="#302F35" transform="translate(78,346)"/>
<path d="M0 0 C0.33 0 0.66 0 1 0 C1.1799928 5.21979128 0.97094808 9.07262981 -1 14 C-1.33 14 -1.66 14 -2 14 C-2.33 10.37 -2.66 6.74 -3 3 C-2.34 3.66 -1.68 4.32 -1 5 C-0.67 3.35 -0.34 1.7 0 0 Z " fill="#39383D" transform="translate(101,340)"/>
<path d="M0 0 C0.33 0 0.66 0 1 0 C1 4.95 1 9.9 1 15 C-2 11 -2 11 -1.75 7.5 C-0.60869565 2.17391304 -0.60869565 2.17391304 0 0 Z " fill="#CECDD1" transform="translate(88,338)"/>
<path d="M0 0 C1.98 0 3.96 0 6 0 C5.67 1.65 5.34 3.3 5 5 C3.35 4.67 1.7 4.34 0 4 C0 2.68 0 1.36 0 0 Z " fill="#DAD3EF" transform="translate(191,194)"/>
<path d="M0 0 C1.65 0 3.3 0 5 0 C4.67 1.65 4.34 3.3 4 5 C2.35 4.67 0.7 4.34 -1 4 C-0.67 2.68 -0.34 1.36 0 0 Z " fill="#D8CFEE" transform="translate(44,342)"/>
<path d="M0 0 C1.65 0 3.3 0 5 0 C5.33 1.32 5.66 2.64 6 4 C4.35 4.33 2.7 4.66 1 5 C0.67 3.35 0.34 1.7 0 0 Z " fill="#DCD3EC" transform="translate(179,154)"/>
<path d="M0 0 C0.66 0 1.32 0 2 0 C1.745504 1.48206495 1.47088238 2.96068615 1.1875 4.4375 C1.03667969 5.26121094 0.88585937 6.08492187 0.73046875 6.93359375 C0.48941406 7.61550781 0.24835938 8.29742187 0 9 C-0.99 9.33 -1.98 9.66 -3 10 C-2.69201674 8.51988629 -2.378482 7.04092675 -2.0625 5.5625 C-1.88847656 4.73878906 -1.71445313 3.91507813 -1.53515625 3.06640625 C-1 1 -1 1 0 0 Z " fill="#DDD4ED" transform="translate(129,160)"/>
<path d="M0 0 C1.98 0 3.96 0 6 0 C6.2475 0.639375 6.495 1.27875 6.75 1.9375 C7.81562433 4.18741541 7.81562433 4.18741541 10.125 4.75 C10.74375 4.8325 11.3625 4.915 12 5 C10.02 5.33 8.04 5.66 6 6 C5.67 5.01 5.34 4.02 5 3 C3.35 2.67 1.7 2.34 0 2 C0 1.34 0 0.68 0 0 Z " fill="#3F3E41" transform="translate(126,359)"/>
<path d="M0 0 C2.64 0 5.28 0 8 0 C8 0.99 8 1.98 8 3 C5.36 3 2.72 3 0 3 C0 2.01 0 1.02 0 0 Z " fill="#D9D0F0" transform="translate(260,552)"/>
<path d="M0 0 C0 0.99 0 1.98 0 3 C-0.66 3 -1.32 3 -2 3 C-2.33 4.32 -2.66 5.64 -3 7 C-4.98 7 -6.96 7 -9 7 C-6.19195732 4.03595495 -3.81684226 1.55500981 0 0 Z " fill="#37363C" transform="translate(199,224)"/>
<path d="M0 0 C0.99 0.33 1.98 0.66 3 1 C3 1.66 3 2.32 3 3 C3.66 3 4.32 3 5 3 C5 3.66 5 4.32 5 5 C5.66 5 6.32 5 7 5 C7 5.99 7 6.98 7 8 C4.13792848 6.71700242 1.9754912 5.469364 0 3 C0 2.01 0 1.02 0 0 Z " fill="#DDD4EC" transform="translate(93,172)"/>
<path d="M0 0 C3.67420866 0.30618405 4.78135513 0.75771784 7.3125 3.5625 C8.1478125 4.7690625 8.1478125 4.7690625 9 6 C8.67 6.66 8.34 7.32 8 8 C7.34 8 6.68 8 6 8 C4.6273318 6.02678947 3.29572383 4.02456848 2 2 C1.34 1.34 0.68 0.68 0 0 Z " fill="#424247" transform="translate(133,351)"/>
<path d="M0 0 C2 2 2 2 2.1953125 4.1640625 C2.16050781 5.38222656 2.16050781 5.38222656 2.125 6.625 C2.10695313 7.44226563 2.08890625 8.25953125 2.0703125 9.1015625 C2.04710937 9.72804688 2.02390625 10.35453125 2 11 C1.01 11 0.02 11 -1 11 C-1.125 3.375 -1.125 3.375 0 0 Z " fill="#473E63" transform="translate(273,534)"/>
<path d="M0 0 C0 0.66 0 1.32 0 2 C-3.78187881 3.83691257 -5.94568308 4.15837626 -10 3 C-6.1865669 0.45771127 -4.5252563 -0.11908569 0 0 Z " fill="#4F4F4F" transform="translate(231,533)"/>
<path d="M0 0 C0.66 0 1.32 0 2 0 C2.66 0.99 3.32 1.98 4 3 C6.56282742 3.72965366 6.56282742 3.72965366 9 4 C9 4.66 9 5.32 9 6 C6.1875 6.25 6.1875 6.25 3 6 C1.125 4.125 1.125 4.125 0 2 C0 1.34 0 0.68 0 0 Z " fill="#333337" transform="translate(122,374)"/>
<path d="M0 0 C2.475 0.495 2.475 0.495 5 1 C5 1.99 5 2.98 5 4 C3.68 4.33 2.36 4.66 1 5 C0.67 3.35 0.34 1.7 0 0 Z " fill="#DAD1ED" transform="translate(342,330)"/>
<path d="M0 0 C0.33 0 0.66 0 1 0 C1.2493357 1.60115576 1.47378648 3.20620159 1.6875 4.8125 C1.87892578 6.15248047 1.87892578 6.15248047 2.07421875 7.51953125 C2 10 2 10 -1 13 C-0.67 8.71 -0.34 4.42 0 0 Z " fill="#EDE5FA" transform="translate(389,475)"/>
<path d="M0 0 C0.99 0.33 1.98 0.66 3 1 C3 2.32 3 3.64 3 5 C1.35 5 -0.3 5 -2 5 C-1.34 3.35 -0.68 1.7 0 0 Z " fill="#755CCE" transform="translate(272,550)"/>
<path d="M0 0 C2.125 0.9375 2.125 0.9375 4 2 C3.67 2.99 3.34 3.98 3 5 C0.525 4.01 0.525 4.01 -2 3 C-2 2.34 -2 1.68 -2 1 C-1.34 0.67 -0.68 0.34 0 0 Z " fill="#383A39" transform="translate(254,290)"/>
<path d="M0 0 C0.66 0.99 1.32 1.98 2 3 C1.01 4.98 0.02 6.96 -1 9 C-1.66 8.67 -2.32 8.34 -3 8 C-1.125 2.25 -1.125 2.25 0 0 Z " fill="#3F3E44" transform="translate(141,383)"/>
<path d="M0 0 C0.66 0.33 1.32 0.66 2 1 C1.67 2.65 1.34 4.3 1 6 C-0.32 5.67 -1.64 5.34 -3 5 C-2.67 4.01 -2.34 3.02 -2 2 C-1.34 2 -0.68 2 0 2 C0 1.34 0 0.68 0 0 Z " fill="#2C2C2C" transform="translate(225,297)"/>
<path d="M0 0 C2.31 0.33 4.62 0.66 7 1 C7 1.33 7 1.66 7 2 C1.375 4 1.375 4 -2 4 C-1.34 2.68 -0.68 1.36 0 0 Z " fill="#515054" transform="translate(124,360)"/>
<path d="M0 0 C0.66 0 1.32 0 2 0 C2.66 2.31 3.32 4.62 4 7 C3.01 7 2.02 7 1 7 C0.67 4.69 0.34 2.38 0 0 Z " fill="#4D4B50" transform="translate(78,354)"/>
<path d="M0 0 C-0.3125 1.9375 -0.3125 1.9375 -1 4 C-1.99 4.33 -2.98 4.66 -4 5 C-4 4.34 -4 3.68 -4 3 C-4.66 2.67 -5.32 2.34 -6 2 C-3 0 -3 0 0 0 Z " fill="#505050" transform="translate(223,325)"/>
<path d="M0 0 C0.33 0 0.66 0 1 0 C1 1.98 1 3.96 1 6 C-0.32 6.33 -1.64 6.66 -3 7 C-3.33 6.01 -3.66 5.02 -4 4 C-2.68 4 -1.36 4 0 4 C0 2.68 0 1.36 0 0 Z " fill="#39393A" transform="translate(193,296)"/>
<path d="M0 0 C4.95 0.99 4.95 0.99 10 2 C10 2.33 10 2.66 10 3 C6.7 3 3.4 3 0 3 C0 2.01 0 1.02 0 0 Z " fill="#505051" transform="translate(218,283)"/>
<path d="M0 0 C0 0.66 0 1.32 0 2 C-2.31 3.32 -4.62 4.64 -7 6 C-6.75 4.125 -6.75 4.125 -6 2 C-3.85331506 0.61504198 -2.56128588 0 0 0 Z " fill="#D8D0EC" transform="translate(157,181)"/>
</svg>
